<svg width="224" height="128" viewBox="0 0 224 128" fill="none" xmlns="http://www.w3.org/2000/svg">
<g clip-path="url(#clip0_28_5375)">
<mask id="mask0_28_5375" style="mask-type:luminance" maskUnits="userSpaceOnUse" x="1" y="25" width="222" height="79">
<path d="M222.867 25H1.11258V103.178H222.867V25Z" fill="white"/>
</mask>
<g mask="url(#mask0_28_5375)">
<path d="M83.4243 42.9948C74.9321 42.9948 68.5061 48.8926 68.5061 56.7884C68.5061 64.6842 74.9734 70.5821 83.3003 70.5821C88.2868 70.5821 92.1988 68.4542 94.7127 65.4642V64.8895L89.7676 60.7158H89.189C87.8253 62.1869 85.7246 63.2953 83.376 63.2953C79.7119 63.2953 76.8261 60.5516 76.8261 56.7884C76.8261 53.0253 79.7119 50.2816 83.376 50.2816C85.7246 50.2816 87.8253 51.3832 89.189 52.8611H89.7676L94.7127 48.6874V48.1126C92.1162 44.9995 88.0388 42.9948 83.4243 42.9948Z" fill="#405865"/>
<path d="M98.914 70.0826H119.438V63.4116H107.076V59.6621H116.387V53.4153H107.076V49.659H119.438V42.9948H98.914V70.0826Z" fill="#405865"/>
<path d="M195.91 41.3663L206.661 37.35V36.7821L203.816 32.1158H203.245L193.726 37.9247V38.4995L195.331 41.3663H195.91Z" fill="#405865"/>
<path d="M210.821 60.7021L207.563 53.4837L202.825 42.9879H195.324L183.912 70.0758H192.487L194.009 65.9911H204.188C205.015 67.4484 205.876 68.5774 206.826 69.3232C207.935 70.1579 209.299 70.5753 211.027 70.5753C212.543 70.5753 213.879 70.2537 214.946 69.6858L211.269 61.6053C211.124 61.3453 210.979 61.0442 210.821 60.6953M196.068 60.5721L199.078 52.5258L201.922 60.5721H196.075H196.068Z" fill="#405865"/>
<path d="M149.385 60.7021L146.127 53.4837L141.389 42.9879H133.888L122.476 70.0758H131.044L132.566 65.9911H142.745C143.572 67.4484 144.433 68.5774 145.383 69.3232C146.499 70.1579 147.856 70.5753 149.585 70.5753C151.1 70.5753 152.436 70.2537 153.504 69.6858L149.826 61.6053C149.681 61.3453 149.536 61.0442 149.378 60.6953M134.625 60.5721L137.635 52.5258L140.48 60.5721H134.632H134.625Z" fill="#405865"/>
<path d="M175.309 59.4569C178.278 58.1226 180.254 55.5774 180.254 52.04C180.254 46.4979 176.466 42.9948 169.42 42.9948H156.727V70.0826H164.889V60.579H165.55C167.361 60.579 169.049 64.2874 170.04 66.039C171.893 69.289 173.629 70.5821 177.334 70.5821C178.98 70.5821 180.674 70.0416 181.494 69.3711L181.515 69.3026L175.481 59.6416C175.426 59.58 175.371 59.5116 175.309 59.4569ZM169.09 55.1669H164.889V49.6658H169.09C170.612 49.6658 171.934 50.6647 171.934 52.4984C171.934 54.3321 170.619 55.1669 169.09 55.1669Z" fill="#405865"/>
<path d="M77.2807 79.6958C77.2807 80.8726 76.8192 81.9194 76.0341 82.6721C75.2627 83.4247 74.1676 83.8968 72.9072 83.8968C70.4001 83.8968 68.5061 82.07 68.5061 79.5863C68.5061 77.1026 70.4484 75.2826 72.9209 75.2826C74.3466 75.2826 75.6208 75.9189 76.406 76.8768V77.0273L75.1731 78.0605H75.0216C74.5464 77.4721 73.8232 77.0752 72.976 77.0752C71.6537 77.0752 70.5586 78.1084 70.5586 79.5931C70.5586 81.0779 71.5986 82.0836 73.0174 82.0836C73.6372 82.0836 74.202 81.8784 74.6152 81.5089C74.939 81.2147 75.1525 80.8452 75.2351 80.4073H72.9967V78.9363H77.1154L77.2669 79.0663C77.2944 79.2579 77.2944 79.4973 77.2944 79.6821" fill="#405865"/>
<path d="M78.6237 79.5932C78.6237 77.13 80.6072 75.2895 83.2176 75.2895C85.8279 75.2895 87.7977 77.13 87.7977 79.5932C87.7977 82.0563 85.8141 83.9037 83.2176 83.9037C80.621 83.9037 78.6237 82.0632 78.6237 79.5932ZM85.7521 79.5932C85.7521 78.1221 84.6295 77.089 83.2176 77.089C81.8056 77.089 80.683 78.1221 80.683 79.5932C80.683 81.0642 81.7988 82.0974 83.2176 82.0974C84.6364 82.0974 85.7521 81.0505 85.7521 79.5932Z" fill="#405865"/>
<path d="M97.2129 75.5905L93.4454 83.7463H92.2608L88.4865 75.5905L88.576 75.44H90.6354L92.8531 80.7837L95.1398 75.44H97.1233L97.2129 75.5905Z" fill="#405865"/>
<path d="M100.746 77.0753V78.7995H103.907V80.3595H100.746V82.1111H104.865V83.7463H98.7349V75.44H104.837V77.0753H100.746Z" fill="#405865"/>
<path d="M113.825 83.5958L113.736 83.7463H111.738L110.051 80.6263H108.88V83.7463H106.876V75.44H110.478C112.586 75.44 113.708 76.4526 113.708 78.0879C113.708 79.21 113.068 79.99 112.062 80.3732L113.825 83.5958ZM108.887 79.2647H110.499C111.18 79.2647 111.67 78.8542 111.67 78.1905C111.67 77.5268 111.18 77.0753 110.499 77.0753H108.887V79.2579V79.2647Z" fill="#405865"/>
<path d="M123.24 75.44V83.7874H121.987L117.744 78.8405V83.7463H115.747V75.44H117L121.229 80.3868V75.44H123.24Z" fill="#405865"/>
<path d="M125.162 79.5932C125.162 77.13 127.146 75.2895 129.756 75.2895C132.366 75.2895 134.336 77.13 134.336 79.5932C134.336 82.0563 132.352 83.9037 129.756 83.9037C127.159 83.9037 125.162 82.0632 125.162 79.5932ZM132.29 79.5932C132.29 78.1221 131.168 77.089 129.756 77.089C128.344 77.089 127.221 78.1221 127.221 79.5932C127.221 81.0642 128.344 82.0974 129.756 82.0974C131.168 82.0974 132.29 81.0505 132.29 79.5932Z" fill="#405865"/>
<path d="M147.622 79.5795C147.622 82.0837 145.921 83.7463 143.221 83.7463H139.564V75.44H143.221C145.921 75.44 147.622 77.1026 147.622 79.5795ZM145.576 79.5932C145.576 78.0195 144.598 77.0753 143.159 77.0753H141.575V82.1111H143.159C144.598 82.1111 145.576 81.1668 145.576 79.5932Z" fill="#405865"/>
<path d="M149.054 79.5932C149.054 77.13 151.038 75.2895 153.648 75.2895C156.259 75.2895 158.228 77.13 158.228 79.5932C158.228 82.0563 156.245 83.9037 153.648 83.9037C151.052 83.9037 149.054 82.0632 149.054 79.5932ZM156.183 79.5932C156.183 78.1221 155.06 77.089 153.648 77.089C152.236 77.089 151.114 78.1221 151.114 79.5932C151.114 81.0642 152.229 82.0974 153.648 82.0974C155.067 82.0974 156.183 81.0505 156.183 79.5932Z" fill="#405865"/>
<path d="M165.467 77.0753V78.7995H168.628V80.3595H165.467V82.1111H169.579V83.7463H163.456V75.44H169.558V77.0753H165.467Z" fill="#405865"/>
<path d="M170.963 82.4053V82.2548L171.955 81.119H172.1C172.63 81.7211 173.594 82.2205 174.414 82.2205C175.234 82.2205 175.75 81.8853 175.75 81.3995C175.75 80.6948 174.937 80.6058 173.911 80.2911C172.768 79.9353 171.363 79.2921 171.363 77.7458C171.363 76.3021 172.651 75.2895 174.517 75.2895C175.881 75.2895 177.052 75.8232 177.658 76.5416V76.6784L176.666 77.8005H176.528C176.115 77.3763 175.419 76.8905 174.545 76.8905C173.877 76.8905 173.415 77.1711 173.415 77.6295C173.415 78.1769 174.042 78.3958 174.724 78.6284C176.15 79.0732 177.809 79.5111 177.809 81.379C177.809 83.0005 176.329 83.8969 174.531 83.8969C173.036 83.8969 171.714 83.3084 170.97 82.3984" fill="#405865"/>
<path d="M183.478 83.7463H181.46V77.0753H178.836V75.44H186.102V77.0753H183.478V83.7463Z" fill="#405865"/>
<path d="M194.773 83.5958L194.683 83.7463H192.652L192.046 82.289H188.505L187.886 83.7463H185.93L185.84 83.5958L189.697 75.44H190.923L194.773 83.5958ZM191.481 80.9137L190.31 78.0879L189.098 80.9137H191.481Z" fill="#405865"/>
<path d="M204.34 79.5795C204.34 82.0837 202.639 83.7463 199.939 83.7463H196.281V75.44H199.939C202.639 75.44 204.34 77.1026 204.34 79.5795ZM202.294 79.5932C202.294 78.0195 201.316 77.0753 199.877 77.0753H198.293V82.1111H199.877C201.316 82.1111 202.294 81.1668 202.294 79.5932Z" fill="#405865"/>
<path d="M205.772 79.5932C205.772 77.13 207.756 75.2895 210.366 75.2895C212.976 75.2895 214.946 77.13 214.946 79.5932C214.946 82.0563 212.963 83.9037 210.366 83.9037C207.77 83.9037 205.772 82.0632 205.772 79.5932ZM212.901 79.5932C212.901 78.1221 211.785 77.089 210.366 77.089C208.947 77.089 207.832 78.1221 207.832 79.5932C207.832 81.0642 208.954 82.0974 210.366 82.0974C211.778 82.0974 212.901 81.0505 212.901 79.5932Z" fill="#405865"/>
<path d="M52.968 58.7179C53.2573 56.1521 55.0894 54.3868 57.2038 53.0526L57.5757 52.8131L50.5161 43.9047L50.3646 43.8774C49.5174 43.72 48.6772 43.5695 47.83 43.4395C45.2541 43.0974 43.429 42.8647 41.838 42.7074C41.4041 42.6731 40.9633 42.6321 40.5294 42.6047H40.488L40.0955 42.5705H39.9921L39.8888 42.5568C38.9108 42.4953 37.9397 42.4474 36.9686 42.4131H36.9617C36.8446 42.4131 36.7275 42.4063 36.6104 42.3995C36.514 42.3995 36.4176 42.3995 36.3211 42.3995C32.7535 42.3242 29.599 42.4474 27.3537 42.5774C26.5755 42.6253 21.5476 43.1247 20.6109 43.2342L20.4594 43.2547C19.3161 43.4121 16.9675 43.7747 16.1135 43.9047L9.05386 52.8131L9.42578 53.0526C11.5402 54.3868 13.3654 56.1521 13.6615 58.7179C13.9439 61.2358 12.5802 64.1642 11.6229 66.4563C10.3349 69.5284 9.13651 72.5663 9.13651 75.9463C9.13651 76.6716 9.24671 77.39 9.46711 78.081C10.1696 80.3321 11.9121 82.1384 13.7511 83.5753C15.8931 85.2516 18.3794 86.6268 20.79 87.8995C23.297 89.22 25.8936 90.4721 28.3111 91.9363C29.9227 92.9147 32.0716 94.3516 32.9601 96.0416L33.3251 96.7326L33.6902 96.0416C34.5786 94.3516 36.7275 92.9147 38.3392 91.9363C40.7566 90.4721 43.3532 89.22 45.8602 87.8995C48.2708 86.6268 50.7572 85.2584 52.8992 83.5753C54.7381 82.1384 56.4806 80.3321 57.1831 78.081C57.3966 77.39 57.5068 76.6716 57.5068 75.9463C57.5068 72.5663 56.3084 69.5353 55.0205 66.4563C54.0631 64.1642 52.6925 61.2358 52.9818 58.7179" fill="white"/>
<path fill-rule="evenodd" clip-rule="evenodd" d="M41.9413 33.7579L43.367 33.97L43.3808 33.1147L41.9413 33.7579Z" fill="#EAD5B0"/>
<path fill-rule="evenodd" clip-rule="evenodd" d="M29.2133 32.6152L29.1996 33.45L30.026 33.3952L29.2133 32.6152Z" fill="#EAD5B0"/>
<path fill-rule="evenodd" clip-rule="evenodd" d="M36.5622 33.3816L37.3887 33.4363L37.3749 32.6084L36.5622 33.3816Z" fill="#EAD5B0"/>
</g>
<mask id="mask1_28_5375" style="mask-type:luminance" maskUnits="userSpaceOnUse" x="19" y="32" width="28" height="5">
<path d="M31.7134 32.1979C31.617 32.1979 31.5481 32.2732 31.5481 32.3621V33.491C30.6734 33.5116 29.778 33.5389 28.8827 33.58V32.4716L28.8276 32.3484L28.7036 32.3074C27.7187 32.3689 26.7062 32.451 25.6938 32.5468C25.6111 32.5537 25.5423 32.6289 25.5423 32.711V33.8263C24.6331 33.9221 23.8548 34.0179 23.0008 34.1342V33.0053L22.9388 32.8821L22.8011 32.8479C22.1605 32.9505 21.4649 33.0942 20.7968 33.231C20.4042 33.3132 20.0323 33.3884 19.6673 33.4568C19.5915 33.4705 19.5295 33.5389 19.5295 33.621V34.8389L19.5502 34.9142C19.7155 35.2289 19.8808 35.5437 20.0461 35.8584L20.177 35.9405H20.2527C24.6607 35.2426 28.7725 34.9005 32.8223 34.8868C37.0718 34.8732 41.2456 35.3863 46.1976 36.1526H46.2252L46.3354 36.1184L46.3974 35.9953V35.8447C46.5282 35.5916 46.666 35.3453 46.7968 35.0921L46.8933 34.921L46.9139 34.8458V33.6279C46.9139 33.5526 46.8588 33.4842 46.7762 33.4637L46.2734 33.3679C45.4262 33.2037 44.5446 33.0258 43.7113 32.8889L43.5804 32.9232L43.5184 33.0463L43.4909 33.7032V34.1C42.8021 34.0042 42.1478 33.9358 41.4591 33.8674C41.2731 33.8468 41.094 33.8263 40.9081 33.8058V32.6905C40.9081 32.6084 40.8392 32.5332 40.7566 32.5263C39.7717 32.4305 38.7592 32.3484 37.7468 32.2868L37.6228 32.3347L37.5677 32.451V33.5526C36.693 33.5184 35.7976 33.491 34.9023 33.4705V32.3484C34.9023 32.2595 34.8265 32.1842 34.737 32.1842C34.3237 32.1842 33.9036 32.1842 33.4903 32.1842C32.9049 32.1842 32.3195 32.1842 31.734 32.191" fill="white"/>
</mask>
<g mask="url(#mask1_28_5375)">
<path d="M46.9003 32.1912H19.5366V36.1665H46.9003V32.1912Z" fill="url(#paint0_linear_28_5375)"/>
</g>
<mask id="mask2_28_5375" style="mask-type:luminance" maskUnits="userSpaceOnUse" x="20" y="34" width="27" height="4">
<path d="M20.0875 36.1184L21.2652 37.2679C21.2652 37.2679 27.3261 36.2553 33.0978 36.2553C38.8695 36.2553 45.3023 37.2679 45.3023 37.2679L46.115 36.5084L46.3492 36.1184C46.3492 36.1184 41.0046 34.9895 33.6763 34.9895C26.3481 34.9895 20.0944 36.1184 20.0944 36.1184" fill="white"/>
</mask>
<g mask="url(#mask2_28_5375)">
<path d="M46.3423 34.9895H20.0875V37.2679H46.3423V34.9895Z" fill="url(#paint1_linear_28_5375)"/>
</g>
<mask id="mask3_28_5375" style="mask-type:luminance" maskUnits="userSpaceOnUse" x="19" y="36" width="29" height="8">
<path d="M22.2707 37.2131L19.5502 43.6584C19.5502 43.6584 26.3619 42.8647 33.6901 42.7074C41.0114 42.55 47.0999 43.6652 47.1274 43.7063L44.2623 37.1652C44.2623 37.1652 39.4204 36.5563 33.6281 36.4058C33.2148 36.3921 32.8016 36.3921 32.3952 36.3921C27.0713 36.3921 22.2707 37.2131 22.2707 37.2131Z" fill="white"/>
</mask>
<g mask="url(#mask3_28_5375)">
<path d="M47.1274 36.3921H19.5502V43.7063H47.1274V36.3921Z" fill="url(#paint2_linear_28_5375)"/>
</g>
<mask id="mask4_28_5375" style="mask-type:luminance" maskUnits="userSpaceOnUse" x="1" y="25" width="222" height="79">
<path d="M222.867 25H1.11258V103.178H222.867V25Z" fill="white"/>
</mask>
<g mask="url(#mask4_28_5375)">
<path fill-rule="evenodd" clip-rule="evenodd" d="M35.164 42.5773L31.0591 42.6321C31.0591 42.6321 31.1348 40.8942 31.3208 40.3331C31.5067 39.7721 31.8855 39.1426 32.3401 38.8689C32.7947 38.5952 33.3319 38.4652 33.8278 38.6431C34.3237 38.821 34.6543 39.0878 34.978 39.6284C35.2948 40.1689 35.4188 40.6889 35.5152 41.2979C35.6185 41.9068 35.5152 42.6115 35.5152 42.6115L35.164 42.5842V42.5773Z" fill="#EAD5B0"/>
<path fill-rule="evenodd" clip-rule="evenodd" d="M39.4273 37.5416C38.773 37.5826 38.1806 37.9863 38.2289 38.52C38.2771 39.0537 38.587 41.5168 38.587 41.5168L41.2249 41.7084L40.7497 38.3284C40.7497 38.3284 40.0816 37.5142 39.4273 37.5484" fill="#EAD5B0"/>
</g>
<mask id="mask5_28_5375" style="mask-type:luminance" maskUnits="userSpaceOnUse" x="11" y="44" width="45" height="49">
<path d="M17.2911 46.0258L12.2633 52.2795C14.178 53.86 15.5968 55.8442 15.8929 58.4237C16.2442 61.4958 14.8736 64.5816 13.7096 67.3595C12.5594 70.11 11.3954 72.9563 11.3954 75.9806C11.3954 76.4732 11.4712 76.9521 11.6158 77.4242C12.766 81.1053 18.5652 84.1569 21.8023 85.8674C24.3645 87.2153 27.0092 88.4948 29.4818 89.9863C30.7353 90.7458 32.1679 91.6011 33.2974 92.6821C34.427 91.6079 35.708 90.7458 36.9547 89.9863C39.4272 88.4879 42.072 87.2153 44.6341 85.8674C48.0985 84.0406 55.041 80.5032 55.041 75.9806C55.041 72.9563 53.8839 70.1169 52.7337 67.3595C51.5698 64.5748 50.2336 61.4958 50.578 58.4306C50.8741 55.8511 52.2998 53.9285 54.2145 52.3479L49.1316 46.0121C44.028 45.0953 38.89 44.6711 33.7451 44.6711C28.249 44.6711 22.7459 45.15 17.2842 46.0258" fill="white"/>
</mask>
<g mask="url(#mask5_28_5375)">
<path d="M55.0548 44.6711H11.4023V92.6821H55.0548V44.6711Z" fill="url(#paint3_radial_28_5375)"/>
</g>
<mask id="mask6_28_5375" style="mask-type:luminance" maskUnits="userSpaceOnUse" x="1" y="25" width="222" height="79">
<path d="M222.867 25H1.11258V103.178H222.867V25Z" fill="white"/>
</mask>
<g mask="url(#mask6_28_5375)">
<path fill-rule="evenodd" clip-rule="evenodd" d="M18.2209 54.4348L17.8076 55.7553L16.4577 55.7484L17.5528 56.5626L17.1326 57.8832L18.2209 57.0621L19.3091 57.8832L18.8889 56.5626L19.9771 55.7484L18.6341 55.7553L18.2209 54.4348Z" fill="white"/>
<path d="M18.2209 54.4348L17.8076 55.7553L16.4577 55.7484L17.5528 56.5626L17.1326 57.8832L18.2209 57.0621L19.3091 57.8832L18.8889 56.5626L19.9771 55.7484L18.6341 55.7553L18.2209 54.4348L18.6341 55.7553L19.9771 55.7484L18.8889 56.5626L19.3091 57.8832L18.2209 57.0621L17.1326 57.8832L17.5528 56.5626L16.4577 55.7484L17.8076 55.7553L18.2209 54.4348Z" fill="white"/>
<path fill-rule="evenodd" clip-rule="evenodd" d="M17.0843 63.3979L16.6711 64.7184L15.328 64.7116L16.4162 65.5258L15.9961 66.8463L17.0843 66.0253L18.1725 66.8463L17.7524 65.5258L18.8475 64.7116L17.4976 64.7184L17.0843 63.3979Z" fill="white"/>
<path d="M17.0843 63.3979L16.6711 64.7184L15.328 64.7116L16.4162 65.5258L15.9961 66.8463L17.0843 66.0253L18.1725 66.8463L17.7524 65.5258L18.8475 64.7116L17.4976 64.7184L17.0843 63.3979L17.4976 64.7184L18.8475 64.7116L17.7524 65.5258L18.1725 66.8463L17.0843 66.0253L15.9961 66.8463L16.4162 65.5258L15.328 64.7116L16.6711 64.7184L17.0843 63.3979Z" fill="white"/>
<path fill-rule="evenodd" clip-rule="evenodd" d="M15.6174 71.4305L15.2042 72.7511L13.8611 72.7442L14.9493 73.5584L14.5361 74.879L15.6174 74.0579L16.7056 74.879L16.2924 73.5584L17.3806 72.7442L16.0375 72.7511L15.6174 71.4305Z" fill="white"/>
<path d="M15.6174 71.4305L15.2042 72.7511L13.8611 72.7442L14.9493 73.5584L14.5361 74.879L15.6174 74.0579L16.7056 74.879L16.2924 73.5584L17.3806 72.7442L16.0375 72.7511L15.6174 71.4305L16.0375 72.7511L17.3806 72.7442L16.2924 73.5584L16.7056 74.879L15.6174 74.0579L14.5361 74.879L14.9493 73.5584L13.8611 72.7442L15.2042 72.7511L15.6174 71.4305Z" fill="white"/>
<path fill-rule="evenodd" clip-rule="evenodd" d="M33.1389 85.4089L32.7257 86.7295L31.3758 86.7226L32.4709 87.5368L32.0507 88.8574L33.1389 88.0363L34.2272 88.8574L33.807 87.5368L34.8952 86.7226L33.5522 86.7295L33.1389 85.4089Z" fill="white"/>
<path d="M33.1389 85.4089L32.7257 86.7295L31.3758 86.7226L32.4709 87.5368L32.0507 88.8574L33.1389 88.0363L34.2272 88.8574L33.807 87.5368L34.8952 86.7226L33.5522 86.7295L33.1389 85.4089L33.5522 86.7295L34.8952 86.7226L33.807 87.5368L34.2272 88.8574L33.1389 88.0363L32.0507 88.8574L32.4709 87.5368L31.3758 86.7226L32.7257 86.7295L33.1389 85.4089Z" fill="white"/>
<path fill-rule="evenodd" clip-rule="evenodd" d="M41.2524 82.1521L40.8391 83.4658H39.4961L40.5843 84.28L40.1641 85.5937L41.2524 84.7795L42.3406 85.5937L41.9204 84.28L43.0086 83.4658H41.6656L41.2524 82.1521Z" fill="white"/>
<path d="M41.2524 82.1521L40.8391 83.4658H39.4961L40.5843 84.28L40.1641 85.5937L41.2524 84.7795L42.3406 85.5937L41.9204 84.28L43.0086 83.4658H41.6656L41.2524 82.1521L41.6656 83.4658H43.0086L41.9204 84.28L42.3406 85.5937L41.2524 84.7795L40.1641 85.5937L40.5843 84.28L39.4961 83.4658H40.8391L41.2524 82.1521Z" fill="white"/>
<path fill-rule="evenodd" clip-rule="evenodd" d="M24.943 82.1521L25.3562 83.4658H26.7062L25.6111 84.28L26.0312 85.5937L24.943 84.7795L23.8548 85.5937L24.2749 84.28L23.1867 83.4658H24.5298L24.943 82.1521Z" fill="white"/>
<path d="M24.943 82.1521L25.3562 83.4658H26.7062L25.6111 84.28L26.0312 85.5937L24.943 84.7795L23.8548 85.5937L24.2749 84.28L23.1867 83.4658H24.5298L24.943 82.1521L24.5298 83.4658H23.1867L24.2749 84.28L23.8548 85.5937L24.943 84.7795L26.0312 85.5937L25.6111 84.28L26.7062 83.4658H25.3562L24.943 82.1521Z" fill="white"/>
<path fill-rule="evenodd" clip-rule="evenodd" d="M18.4894 77.869L18.9026 79.1895L20.2526 79.1826L19.1575 79.9969L19.5776 81.3105L18.4894 80.4963L17.4012 81.3105L17.8213 79.9969L16.7331 79.1826L18.0761 79.1895L18.4894 77.869Z" fill="white"/>
<path d="M18.4894 77.869L18.9026 79.1895L20.2526 79.1826L19.1575 79.9969L19.5776 81.3105L18.4894 80.4963L17.4012 81.3105L17.8213 79.9969L16.7331 79.1826L18.0761 79.1895L18.4894 77.869L18.0761 79.1895L16.7331 79.1826L17.8213 79.9969L17.4012 81.3105L18.4894 80.4963L19.5776 81.3105L19.1575 79.9969L20.2526 79.1826L18.9026 79.1895L18.4894 77.869Z" fill="white"/>
</g>
<mask id="mask7_28_5375" style="mask-type:luminance" maskUnits="userSpaceOnUse" x="20" y="49" width="27" height="18">
<path d="M20.0323 66.6411H46.4042C46.6246 58.2732 42.2098 49.6795 33.2148 49.6795C24.2198 49.6795 19.8119 58.2732 20.0254 66.6411" fill="white"/>
</mask>
<g mask="url(#mask7_28_5375)">
<path d="M46.6245 49.6795H19.8118V66.6411H46.6245V49.6795Z" fill="url(#paint4_radial_28_5375)"/>
</g>
<mask id="mask8_28_5375" style="mask-type:luminance" maskUnits="userSpaceOnUse" x="1" y="25" width="222" height="79">
<path d="M222.867 25H1.11258V103.178H222.867V25Z" fill="white"/>
</mask>
<g mask="url(#mask8_28_5375)">
<path fill-rule="evenodd" clip-rule="evenodd" d="M20.0254 65.7653H27.4432V66.08H20.0185V66.0116C20.0185 65.9295 20.0185 65.8474 20.0185 65.7653" fill="#C9A42F"/>
<path fill-rule="evenodd" clip-rule="evenodd" d="M20.0874 64.3421L27.4776 65.7789L27.4156 66.0868L20.0599 64.6568C20.0668 64.5542 20.0737 64.4447 20.0805 64.3421" fill="#C9A42F"/>
<path fill-rule="evenodd" clip-rule="evenodd" d="M20.2527 62.8505L27.5189 65.7926L27.3949 66.08L20.2114 63.1721C20.2251 63.0626 20.2389 62.96 20.2527 62.8505Z" fill="#C9A42F"/>
<path d="M27.5189 65.7926L20.2527 62.8505C20.2389 62.96 20.2251 63.0626 20.2114 63.1721L27.3949 66.08L27.5189 65.7926Z" fill="#C9A42F"/>
<path fill-rule="evenodd" clip-rule="evenodd" d="M20.5419 61.2426L27.5395 65.8131L27.3604 66.0731L20.4661 61.5779C20.4868 61.4684 20.5143 61.3589 20.535 61.2495" fill="#C9A42F"/>
<path d="M27.5395 65.8131L27.3604 66.0731L20.4661 61.5779C20.4868 61.4684 20.5143 61.3589 20.535 61.2495C20.5075 61.3589 20.4868 61.4684 20.4661 61.5779L27.3604 66.0731L27.5395 65.8131Z" fill="#C9A42F"/>
<path fill-rule="evenodd" clip-rule="evenodd" d="M21.031 59.4569L27.5741 65.8405L27.3468 66.0595L20.9277 59.7921C20.9621 59.6758 20.9966 59.5663 21.031 59.45" fill="#C9A42F"/>
<path fill-rule="evenodd" clip-rule="evenodd" d="M21.8093 57.4384L27.5879 65.8679L27.3193 66.0389L21.6509 57.7737C21.6991 57.6574 21.7473 57.5479 21.8024 57.4316" fill="#C9A42F"/>
<path fill-rule="evenodd" clip-rule="evenodd" d="M23.0421 55.2079L27.6016 65.9021L27.3054 66.0184L22.8355 55.5295C22.9044 55.42 22.9733 55.3105 23.0421 55.2079Z" fill="#C9A42F"/>
<path d="M27.6016 65.9021L27.3054 66.0184L22.8355 55.5295C22.9044 55.42 22.9733 55.3105 23.0421 55.2079C22.9733 55.3174 22.8975 55.42 22.8355 55.5295L27.3054 66.0184L27.6016 65.9021Z" fill="#C9A42F"/>
<path fill-rule="evenodd" clip-rule="evenodd" d="M24.9223 52.9432L27.6084 65.9363L27.2985 65.9979L24.6537 53.21C24.7433 53.1211 24.8328 53.0321 24.9223 52.9432Z" fill="#C9A42F"/>
<path d="M27.6084 65.9363L24.9223 52.9432L24.6537 53.21L27.2985 65.9979L27.6084 65.9363Z" fill="#C9A42F"/>
<path fill-rule="evenodd" clip-rule="evenodd" d="M27.5464 51.0342L27.6015 65.9706H27.2847L27.2296 51.2121C27.3329 51.1506 27.4431 51.0958 27.5464 51.0342Z" fill="#C9A42F"/>
<path d="M27.5464 51.0342L27.6015 65.9706H27.2847L27.2296 51.2121C27.3329 51.1506 27.4431 51.0958 27.5464 51.0342C27.4362 51.089 27.3329 51.1506 27.2296 51.2121L27.2847 65.9774H27.6015L27.5464 51.0411V51.0342Z" fill="#C9A42F"/>
<path fill-rule="evenodd" clip-rule="evenodd" d="M30.7974 49.8984L27.6016 66.0048L27.2917 65.9432L30.4599 49.9669C30.5701 49.9395 30.6872 49.919 30.7974 49.8984Z" fill="#C9A42F"/>
<path d="M27.6016 66.0048L27.2917 65.9432L30.4599 49.9669C30.5701 49.9395 30.6872 49.919 30.7974 49.8984C30.6803 49.919 30.5701 49.9463 30.4599 49.9669L27.2917 65.9432L27.6016 66.0048Z" fill="#C9A42F"/>
<path fill-rule="evenodd" clip-rule="evenodd" d="M34.3857 49.7274L27.5809 66.039L27.2848 65.9226L34.0482 49.7068C34.1584 49.7137 34.2755 49.7205 34.3857 49.7342" fill="#C9A42F"/>
<path d="M27.5809 66.039L27.2848 65.9226L34.0482 49.7068C34.1584 49.7137 34.2755 49.7205 34.3857 49.7342C34.2755 49.7274 34.1584 49.7137 34.0482 49.7068L27.2848 65.9226L27.5809 66.039Z" fill="#C9A42F"/>
<path fill-rule="evenodd" clip-rule="evenodd" d="M37.9878 50.61L27.5603 66.0731L27.2917 65.9021L37.6848 50.4868C37.7881 50.5279 37.8845 50.5689 37.9878 50.61Z" fill="#C9A42F"/>
<path d="M27.5603 66.0731L27.2917 65.9021L37.6848 50.4868C37.7881 50.5279 37.8845 50.5689 37.9878 50.61C37.8914 50.5689 37.7881 50.5279 37.6848 50.4868L27.2917 65.9021L27.5603 66.0731Z" fill="#C9A42F"/>
<path fill-rule="evenodd" clip-rule="evenodd" d="M41.1423 52.6079L27.5327 66.0937L27.3055 65.8748L40.9012 52.4026C40.9839 52.4711 41.0596 52.5395 41.1423 52.6079Z" fill="#C9A42F"/>
<path d="M27.5327 66.0937L27.3055 65.8748L40.9012 52.4026C40.9839 52.4711 41.0596 52.5395 41.1423 52.6079C41.0665 52.5395 40.9839 52.4711 40.9012 52.4026L27.3055 65.8748L27.5327 66.0937Z" fill="#C9A42F"/>
<path fill-rule="evenodd" clip-rule="evenodd" d="M43.5598 55.4611L27.5052 66.1142L27.3261 65.8542L43.3876 55.201C43.4496 55.29 43.5047 55.3789 43.5598 55.4679" fill="#C9A42F"/>
<path d="M27.5052 66.1142L43.5568 55.463C43.5027 55.3757 43.4485 55.2884 43.3876 55.201L27.3261 65.8542L27.5052 66.1142Z" fill="#C9A42F"/>
<path fill-rule="evenodd" clip-rule="evenodd" d="M45.1851 58.8L27.4706 66.1279L27.3466 65.8405L45.0749 58.5058C45.1093 58.6016 45.1506 58.7042 45.1851 58.8Z" fill="#C9A42F"/>
<path d="M27.4706 66.1279L45.1851 58.8C45.1506 58.7042 45.1093 58.6016 45.0749 58.5058L27.3466 65.8405L27.4706 66.1279Z" fill="#C9A42F"/>
<path fill-rule="evenodd" clip-rule="evenodd" d="M46.108 62.3579L27.4293 66.1347L27.3673 65.8268L46.0529 62.05C46.0736 62.1526 46.0873 62.2552 46.108 62.3579Z" fill="#C9A42F"/>
<path d="M27.4293 66.1347L46.108 62.3579C46.0873 62.2552 46.0736 62.1526 46.0529 62.05L27.3673 65.8268L27.4293 66.1347Z" fill="#C9A42F"/>
<path fill-rule="evenodd" clip-rule="evenodd" d="M46.418 65.9842L27.4018 66.1279V65.8132L46.418 65.6695C46.418 65.7721 46.418 65.8748 46.418 65.9842Z" fill="#C9A42F"/>
<path d="M46.418 65.9842L27.4018 66.1279V65.8132L46.418 65.6695C46.418 65.7721 46.418 65.8748 46.418 65.9842C46.418 65.8816 46.418 65.7721 46.418 65.6695L27.4018 65.8132V66.1279L46.4248 65.9842H46.418Z" fill="#C9A42F"/>
<path fill-rule="evenodd" clip-rule="evenodd" d="M27.45 61.2221C30.143 61.2221 32.3194 63.3568 32.3194 65.9774H22.5737C22.5737 63.35 24.757 61.2221 27.4431 61.2221" fill="#C9A42F"/>
<path fill-rule="evenodd" clip-rule="evenodd" d="M27.4501 61.6326C29.9158 61.6326 31.92 63.5347 31.92 65.8747H22.9732C22.9732 63.5347 24.9775 61.6326 27.4432 61.6326" fill="#F9CA16"/>
</g>
<mask id="mask9_28_5375" style="mask-type:luminance" maskUnits="userSpaceOnUse" x="20" y="65" width="25" height="18">
<path d="M20.0254 66.0869C20.0254 66.7095 20.0529 67.3321 20.108 67.9479C23.1592 68.0437 27.0988 67.8658 27.1952 68.4406C27.209 68.5158 27.3674 68.4748 27.512 68.4406C27.6567 68.3995 27.7806 68.3585 27.7049 68.4406C26.3067 69.98 28.0355 72.6348 29.8055 73.9963C35.3017 78.2316 33.2906 80.6127 28.8413 81.5706C30.1568 82.0632 31.6169 82.3369 33.2217 82.3369C38.2977 82.3369 41.8998 79.6342 44.0487 75.7821C40.7565 74.489 35.1846 73.8116 33.8966 70.9037C33.4696 69.9458 36.0937 68.1395 36.507 67.3595C37.299 65.8474 32.1472 66.169 32.285 66.0663L20.1218 65.9979C20.1631 65.9979 20.1218 66.0321 20.0254 66.08" fill="white"/>
</mask>
<g mask="url(#mask9_28_5375)">
<path d="M44.0418 65.8611H20.0185V82.3437H44.0418V65.8611Z" fill="url(#paint5_linear_28_5375)"/>
</g>
<mask id="mask10_28_5375" style="mask-type:luminance" maskUnits="userSpaceOnUse" x="19" y="65" width="15" height="18">
<path d="M28.8413 65.8542C25.8591 65.8952 21.9952 66.0116 20.0254 66.0116V65.9226C19.3436 69.5147 20.9139 75.0842 24.1923 78.56C26.5547 81.0642 29.7918 82.3163 31.5963 82.4326H32.0991L32.2575 82.4189C32.3677 82.4052 32.4779 82.4121 32.5743 82.4189C32.7396 82.4326 32.8705 82.4463 32.9394 82.33C36.3211 75.9942 23.9857 68.9126 32.7465 66.0937C33.2011 65.95 32.6776 65.8747 31.6101 65.8542H28.8482H28.8413Z" fill="white"/>
</mask>
<g mask="url(#mask10_28_5375)">
<path d="M36.3141 65.8542H19.3435V82.4531H36.3141V65.8542Z" fill="url(#paint6_linear_28_5375)"/>
</g>
<mask id="mask11_28_5375" style="mask-type:luminance" maskUnits="userSpaceOnUse" x="33" y="58" width="14" height="8">
<path d="M44.8132 58.4374C41.6932 58.4716 41.9825 62.0842 39.8336 62.31C39.3239 62.3648 38.0567 61.9337 37.1751 61.7969C35.9835 61.6053 33.6487 64.4242 33.0977 65.9432H46.418V65.7858C46.3904 63.2542 45.9359 60.7295 45.0612 58.4511C44.9854 58.4374 44.9096 58.4305 44.8339 58.4305H44.8201L44.8132 58.4374Z" fill="white"/>
</mask>
<g mask="url(#mask11_28_5375)">
<path d="M46.418 58.4374H33.0978V65.95H46.418V58.4374Z" fill="url(#paint7_linear_28_5375)"/>
</g>
<mask id="mask12_28_5375" style="mask-type:luminance" maskUnits="userSpaceOnUse" x="1" y="25" width="222" height="79">
<path d="M222.867 25H1.11258V103.178H222.867V25Z" fill="white"/>
</mask>
<g mask="url(#mask12_28_5375)">
<path fill-rule="evenodd" clip-rule="evenodd" d="M25.4734 75.3511C23.724 71.8068 24.6194 69.6174 27.0575 68.2626C25.9486 70.2126 27.5672 71.8547 29.9089 73.6747C28.2559 74.01 26.6925 74.5026 25.5285 75.3168L25.4665 75.3511H25.4734Z" fill="white"/>
</g>
<mask id="mask13_28_5375" style="mask-type:luminance" maskUnits="userSpaceOnUse" x="32" y="66" width="15" height="12">
<path d="M34.007 73.2984C36.1696 75.5426 40.1436 75.8437 43.057 77.3421C45.2748 74.3042 46.3905 70.24 46.4181 66.169L33.146 66.0116C31.9338 67.8795 31.2795 70.4658 34.0138 73.2984" fill="white"/>
</mask>
<g mask="url(#mask13_28_5375)">
<path d="M46.4181 66.0116H31.2795V77.3421H46.4181V66.0116Z" fill="url(#paint8_linear_28_5375)"/>
</g>
<mask id="mask14_28_5375" style="mask-type:luminance" maskUnits="userSpaceOnUse" x="39" y="62" width="8" height="4">
<path d="M43.4703 62.4332C42.3407 62.5632 41.5831 64.3832 39.386 65.7311H46.4112C46.3974 64.7663 46.3216 63.8084 46.1908 62.8574C45.5089 62.7684 44.4689 62.5153 43.7389 62.4332H43.4771H43.4703Z" fill="white"/>
</mask>
<g mask="url(#mask14_28_5375)">
<path d="M46.4112 62.4332H39.386V65.7311H46.4112V62.4332Z" fill="url(#paint9_linear_28_5375)"/>
</g>
<mask id="mask15_28_5375" style="mask-type:luminance" maskUnits="userSpaceOnUse" x="1" y="25" width="222" height="79">
<path d="M222.867 25H1.11258V103.178H222.867V25Z" fill="white"/>
</mask>
<g mask="url(#mask15_28_5375)">
<path d="M28.2698 57.1785H26.4997V58.0953H28.2698V57.1785Z" fill="#F9CA16"/>
<path d="M26.4997 57.1785H28.2698V58.0953H26.4997V57.1785V58.0953H28.2698V57.1785H26.4997Z" fill="#F9CA16"/>
<path fill-rule="evenodd" clip-rule="evenodd" d="M33.8004 55.1805C34.9437 55.16 36.1008 55.1942 37.1752 55.5842C38.0086 55.8853 38.3323 55.8716 39.1037 56.59L37.9328 57.3221C36.7551 56.0221 35.2812 55.7963 33.7659 55.3653C33.1323 55.1805 33.1529 55.2011 33.8004 55.1874" fill="white"/>
<path fill-rule="evenodd" clip-rule="evenodd" d="M38.5871 56.5832C39.5376 56.6448 40.6189 55.94 41.0735 55.8511C41.225 55.8237 41.5074 56.0974 41.3765 56.2206C41.287 56.3027 40.7773 56.4874 40.6258 56.5695C40.5294 56.6174 41.349 56.1932 41.4592 56.2137C41.6865 56.2479 41.8311 56.6174 41.7278 56.6995C41.7278 56.6995 40.9977 56.8979 40.7773 56.9937C40.5707 57.0827 41.3834 56.7132 41.7278 56.6995C41.8518 56.6995 41.9895 57.0758 41.8173 57.1853C41.3008 57.5137 40.6189 57.5274 40.0748 57.7669C40.2814 58.5811 40.8187 59.5048 40.7911 60.3464C40.7498 61.6532 40.0197 62.8848 39.7993 64.1095C39.7098 64.5885 39.7718 64.7116 39.6753 64.1574C39.3861 62.5564 39.2759 59.7237 38.5251 58.67C38.2152 58.4785 37.9879 58.3074 37.6091 58.1774C37.4094 58.0953 37.1063 58.0953 36.7275 58.0611C36.5209 58.1158 36.025 58.2253 35.8184 58.28C35.8873 57.8969 36.1903 56.8227 36.9204 56.9116L38.6009 56.5832H38.5871Z" fill="white"/>
<path fill-rule="evenodd" clip-rule="evenodd" d="M38.9314 70.5479L38.9039 70.9721L39.4686 71.3827L39.4549 70.9037L38.9452 70.5274L38.9245 70.5479H38.9314ZM38.6766 78.0264L38.6628 78.4437L38.711 78.4779H39.2896L38.6766 78.0264ZM38.7041 77.1916L38.6904 77.6158L39.6821 78.3479V77.91L38.7041 77.1985V77.1916ZM38.7317 76.3569L38.711 76.7879L39.6684 77.479L39.6477 77.0274L38.7317 76.35V76.3569ZM38.7592 75.5221L38.7386 75.9464L39.6339 76.6169V76.1516L38.7592 75.5153V75.5221ZM38.7868 74.6874L38.7661 75.1321L39.6064 75.7411L39.5857 75.2827L38.7799 74.6942L38.7868 74.6874ZM38.8143 73.8527L38.7937 74.2906L39.5788 74.8721L39.5651 74.4L38.8212 73.8527H38.8143ZM38.8419 73.0179L38.8143 73.4764L39.5375 74.0032L39.5237 73.5311L38.8419 73.0248V73.0179ZM38.8694 72.1832L38.8419 72.6279L39.51 73.1206L39.4962 72.6485L38.8694 72.1832ZM38.897 71.3485L38.8694 71.8069L39.4962 72.2585L39.4755 71.7795L38.9039 71.3553L38.897 71.3485Z" fill="#AA9176"/>
<path d="M38.6492 77.6568L39.6409 78.3889V77.9579L38.6629 77.2463L39.6272 77.9579V78.3889L38.6492 77.6568Z" fill="#AA9176"/>
</g>
<mask id="mask16_28_5375" style="mask-type:luminance" maskUnits="userSpaceOnUse" x="25" y="59" width="5" height="7">
<path d="M25.494 59.9426V65.7653H29.406L29.3922 59.9426H25.494Z" fill="white"/>
</mask>
<g mask="url(#mask16_28_5375)">
<path d="M29.3991 59.9426H25.494V65.7721H29.3991V59.9426Z" fill="url(#paint10_linear_28_5375)"/>
</g>
<mask id="mask17_28_5375" style="mask-type:luminance" maskUnits="userSpaceOnUse" x="26" y="55" width="3" height="5">
<path d="M27.4364 55.5842C27.2022 55.5842 27.0782 55.8784 26.8922 56.1042C26.6994 56.3437 26.5203 56.4942 26.5203 56.4942L26.4997 58.8753L26.5892 58.9848L26.5341 59.8263L28.2009 59.8469L28.1458 58.9779L28.4901 58.9027L28.4488 58.0748L28.4144 56.72C28.4144 56.72 28.0011 56.3163 27.8358 56.07C27.6843 55.8511 27.7807 55.5774 27.4432 55.5774L27.4364 55.5842Z" fill="white"/>
</mask>
<g mask="url(#mask17_28_5375)">
<path d="M28.4902 55.5842H26.4997V59.8537H28.4902V55.5842Z" fill="url(#paint11_linear_28_5375)"/>
</g>
<mask id="mask18_28_5375" style="mask-type:luminance" maskUnits="userSpaceOnUse" x="1" y="25" width="222" height="79">
<path d="M222.867 25H1.11258V103.178H222.867V25Z" fill="white"/>
</mask>
<g mask="url(#mask18_28_5375)">
<path d="M28.194 57.2195H26.603V57.9516H28.194V57.2195Z" fill="#F9CA16"/>
<path fill-rule="evenodd" clip-rule="evenodd" d="M26.9475 37.528C27.6018 37.569 28.1941 37.9727 28.1459 38.5064C28.0977 39.0401 27.7877 41.5032 27.7877 41.5032L25.1498 41.6948L25.632 38.3148C25.632 38.3148 26.3 37.5006 26.9543 37.5348" fill="#EAD5B0"/>
<path d="M26.2794 38.6158C26.1967 39.5121 26.0796 40.1348 25.997 41.0311C26.4653 40.99 26.789 40.99 27.1541 40.9558C27.2643 40.0664 27.3538 39.4164 27.4709 38.5269C27.2436 38.0069 26.6444 38.0821 26.2862 38.6158" fill="#6D4D32"/>
<path d="M40.3848 41.0311C40.3022 40.1348 40.1851 39.5121 40.1024 38.6158C39.7443 38.0821 39.1451 38.0069 38.9178 38.5269C39.028 39.4164 39.1175 40.0732 39.2346 40.9558C39.5928 40.99 39.9233 40.99 40.3917 41.0311" fill="#6D4D32"/>
<path d="M34.9506 42.4953L34.93 42.1669C34.8335 41.0174 34.744 39.1769 33.2908 39.1769C31.8375 39.1769 31.7962 41.079 31.7066 42.2148L31.6929 42.4885H34.9575L34.9506 42.4953Z" fill="#6D4D32"/>
<path d="M33.2975 38.7321C35.1846 38.7321 35.2329 40.9763 35.3844 42.379L35.3982 42.4474L35.3775 42.4885H35.7425V42.379H35.7288C35.6943 42.0027 35.6599 41.5921 35.6048 41.1816L36.4726 41.2021L36.5897 42.3995L36.6172 42.4885H36.9547V42.4132H36.9478L36.8307 41.209C37.3542 41.2295 37.8707 41.2432 38.3942 41.2706L38.4562 41.7495L39.1518 41.8179C39.5375 41.8521 39.9301 41.8658 40.3158 41.8932L41.3558 41.9753L41.3076 41.4485C41.9756 41.4963 42.6437 41.5579 43.3187 41.6195L43.6424 42.8853L43.6837 43.0769L44.0212 43.0906L43.9661 42.769L43.6837 41.6606L46.1288 41.9548L46.6591 43.159L46.7073 43.2753L46.7486 43.3711C46.7486 43.3711 46.9759 43.4053 47.1619 43.4258V43.3437H47.155L44.4896 37.3158L45.4331 37.4595L46.4249 36.6316L47.1343 35.14C47.2583 34.8937 47.1825 33.7648 47.1825 33.4021C46.6384 33.2927 43.5942 32.6837 43.36 32.7179L41.1974 33.6827V32.4442L37.3748 32.1432V32.1569L36.0594 33.3816L35.2122 33.3611V32.0748H31.3897V33.3679L30.5563 33.3953L29.227 32.1637L25.4045 32.4716V33.6963L23.2488 32.7453C22.9939 32.7111 19.9841 33.3132 19.4262 33.4158C19.4262 33.7785 19.3505 34.9074 19.4745 35.1537C20.3629 36.96 19.7155 36.2963 21.2927 37.4595L22.0297 37.35L19.4262 43.419L19.4125 43.4532V43.5353L19.8119 43.4806L19.8601 43.3916H19.8395L20.4456 42.0095H20.4662L22.9044 41.7221L22.5738 43.0221L22.56 43.07L22.5394 43.3232H22.8562L23.0146 42.7142L23.2763 41.6879C23.8824 41.6263 24.4816 41.5716 25.0877 41.5237L25.0464 42.0027L26.0864 41.9206C26.4721 41.8863 26.8646 41.8795 27.2503 41.8453L27.946 41.7769L28.0011 41.3321C28.5934 41.3048 29.1788 41.2774 29.7711 41.2569L29.6816 42.2011L29.6403 42.6527H29.9846L29.9984 42.5021V42.4611L30.1155 41.2432L31.0109 41.2227L31.066 40.8806L28.0424 41.0037C28.0975 40.5932 28.1457 40.1895 28.2008 39.7858L31.4379 39.6421C31.066 40.429 30.9764 41.4553 30.8938 42.2558L30.8594 42.5842H31.2106L31.2244 42.4132C31.369 41.0379 31.4654 38.7527 33.3113 38.7527M38.3873 37.8016C36.7619 37.7127 35.1364 37.6579 33.511 37.6579V36.4742C35.3706 36.4742 37.2371 36.5563 39.0898 36.7069L39.2 37.3569L39.0623 37.3842C38.7937 37.4527 38.5595 37.6032 38.3873 37.8016ZM38.0567 38.6569C38.0843 38.8963 38.1187 39.1427 38.1531 39.3821C37.6641 39.3616 37.1682 39.3342 36.6723 39.3206L36.5621 38.0479C37.0925 38.0685 37.6297 38.089 38.16 38.1232L38.1187 38.2053L38.0223 38.4174L38.0498 38.65L38.0567 38.6569ZM40.3571 41.4827C39.9714 41.4485 39.5788 41.4416 39.2 41.4074L38.8488 41.3732L38.8074 41.0311C38.7041 40.2237 38.5939 39.4095 38.4906 38.6021L38.4768 38.4858L38.525 38.3763C38.649 38.0958 38.8694 37.8769 39.1794 37.7948C39.7028 37.6579 40.2056 37.9863 40.4811 38.3969L40.5431 38.4858V38.5953C40.6257 39.4027 40.7635 40.2032 40.8392 41.0106L40.8874 41.5169L40.3709 41.4758L40.3571 41.4827ZM40.9839 38.5611L40.9632 38.349L40.9494 38.3285C41.4729 38.3763 41.9894 38.4311 42.5129 38.4927L42.8297 39.7379C42.2511 39.6763 41.6726 39.6216 41.0941 39.5806C41.0527 39.2453 41.0114 38.9032 40.977 38.5679M45.9703 41.6058H45.9084C44.3725 41.3937 42.8228 41.2432 41.2731 41.1269L41.2594 40.9832C41.2249 40.6274 41.1836 40.2785 41.1354 39.9227C42.5748 40.039 44.0074 40.1963 45.4331 40.4016L45.9635 41.6058H45.9703ZM45.2747 40.0321H45.2127L43.1947 39.7721L42.8779 38.5269L44.7168 38.7663L45.2747 40.0253V40.0321ZM44.5584 38.4037H44.4964L40.7152 37.9932C40.4191 37.6374 39.999 37.3842 39.5444 37.3432L39.4411 36.7342C40.9839 36.8642 42.5197 37.0421 44.0556 37.2611L44.5584 38.4037ZM43.3807 33.1695L43.3669 33.97C42.9054 33.9085 42.4509 33.8469 42.0101 33.7648L43.3876 33.1695H43.3807ZM37.3817 32.6632V33.4227C37.12 33.409 36.8652 33.4021 36.6035 33.3953L37.3817 32.6632ZM29.2408 32.6632L30.0329 33.409C29.7711 33.4227 29.5094 33.4295 29.2408 33.4432V32.6632ZM23.2556 33.1969L24.6676 33.8127C24.1992 33.8674 23.724 33.929 23.2556 33.9906V33.2037V33.1969ZM20.3354 35.8927C19.7155 34.7158 19.8464 35.14 19.8464 33.7374C20.845 33.5458 21.8368 33.3679 22.8355 33.2106V34.449C23.8342 34.3121 24.826 34.189 25.8247 34.0863V32.8274C26.8233 32.7316 27.8151 32.6495 28.8207 32.5879V33.8606C29.8194 33.8127 30.8111 33.7785 31.8098 33.7579V32.4785C32.8085 32.4648 33.8003 32.4648 34.799 32.4785V33.7579C35.7976 33.7716 36.7894 33.8058 37.7881 33.8469V32.5742C38.7868 32.6358 39.7786 32.7179 40.7772 32.8137V34.0727C41.7759 34.1821 42.7677 34.2985 43.7664 34.4421V33.2037C44.765 33.3679 45.7637 33.5458 46.7624 33.7442C46.7624 35.1879 46.9001 34.6885 46.2527 35.92C41.8241 35.229 37.3886 34.8321 32.9049 34.8458C28.6829 34.8595 24.5023 35.2358 20.3354 35.8927ZM21.4029 37.0148C21.0241 36.7342 20.7831 36.57 20.4043 36.2895C29.3786 34.88 37.12 34.9142 46.177 36.3169L45.3298 37.0421L40.9563 36.4674C34.4477 35.79 28.2421 35.9611 21.4029 37.0148ZM22.4705 37.2679C24.0339 37.049 25.5974 36.8642 27.1608 36.7342L27.0575 37.3363C26.5065 37.3021 25.9831 37.6032 25.6456 38.0274L21.9746 38.4106L22.4636 37.2679H22.4705ZM21.8231 38.7732H21.8437L23.7171 38.5337L23.3865 39.8063L21.2652 40.0663L21.8162 38.7732H21.8231ZM25.129 40.9695L25.1084 41.1611C23.6 41.2774 22.0917 41.4348 20.5971 41.6263L21.1137 40.4221H21.1343C22.498 40.2374 23.8686 40.0869 25.2461 39.9637C25.2048 40.299 25.1635 40.6342 25.129 40.9695ZM25.4114 38.5542C25.377 38.91 25.3356 39.2658 25.2874 39.6216C24.7778 39.6695 24.2681 39.7106 23.7584 39.7653L24.089 38.4927C24.5367 38.4448 24.9844 38.3969 25.4321 38.3558L25.4114 38.5542ZM27.9047 38.5953C27.8013 39.4027 27.6911 40.2169 27.5878 41.0242L27.5465 41.3663L27.1952 41.4006C26.8095 41.4348 26.4239 41.4416 26.0313 41.4758L25.5147 41.5169L25.5629 41.0106C25.6387 40.2032 25.7695 39.4027 25.8453 38.5953V38.4858L25.9142 38.3969C26.1897 37.9795 26.6925 37.6579 27.2159 37.7948C27.519 37.8769 27.7462 38.0958 27.8702 38.3763L27.9184 38.4858L27.9047 38.6021V38.5953ZM28.0286 37.8153C27.8633 37.6237 27.6498 37.48 27.4019 37.3979L27.519 36.7C29.3923 36.5495 31.2726 36.4674 33.1529 36.4674V37.6511C31.4448 37.6648 29.7298 37.7127 28.0286 37.8153ZM29.9227 39.3342C29.3579 39.3548 28.8 39.3821 28.2421 39.4095C28.2766 39.1563 28.311 38.9032 28.3386 38.6432L28.3661 38.4106L28.2697 38.1985L28.2421 38.1369C28.8413 38.1027 29.4337 38.0685 30.0329 38.0479L29.9227 39.3274V39.3342ZM30.2739 39.3206L30.3841 38.0342C32.3264 37.9658 34.2686 37.959 36.2109 38.0274L36.3211 39.3L35.0056 39.2727C35.0813 39.3821 35.1433 39.4916 35.1984 39.6148L38.1945 39.7379C38.2496 40.1485 38.2978 40.5521 38.3529 40.9558L35.5635 40.8532L35.5841 40.9969C35.3706 39.6695 34.8747 38.3969 33.3044 38.3969C32.4917 38.3969 31.9682 38.7527 31.6239 39.2795L30.2739 39.3137V39.3206Z" fill="#6D4D32"/>
<path d="M27.9599 62.0226H27.0301V62.9121H27.9599V62.0226Z" fill="#405865"/>
<path d="M29.227 75.8643C29.3992 75.7 29.3992 75.5358 29.227 75.3716H28.4694V75.3306V74.9201C28.4694 74.8243 28.3868 74.749 28.2903 74.749H27.8702C27.7738 74.749 27.6911 74.8243 27.6911 74.9201V75.3716H25.9831C27.1333 74.6601 28.5383 74.2701 29.8469 73.9964L30.5701 73.8458L29.9915 73.3943C28.9584 72.5937 27.1057 71.1774 26.968 69.7953C26.9197 69.3369 27.0506 68.9127 27.2779 68.5158L27.8771 67.4622L26.8027 68.0574C23.7584 69.7406 23.724 72.5185 25.129 75.3716H24.6882V75.1116H24.0959V75.3716H23.4347C23.2625 75.5016 23.2625 75.6658 23.4347 75.8643C25.2943 76.1722 27.2228 76.1722 29.2201 75.8643M26.9748 68.3516C25.866 70.2948 27.4501 71.8548 29.778 73.6611C28.1319 73.9964 26.6374 74.4822 25.4734 75.2895C23.8135 71.9711 24.5367 69.6927 26.968 68.3448" fill="#405865"/>
<path d="M36.9134 57.2879C36.8239 57.2879 36.7481 57.3495 36.7412 57.4384C36.7412 57.5274 36.8032 57.6095 36.8859 57.6163C36.9754 57.6232 37.0512 57.5547 37.0581 57.4658C37.0649 57.3769 37.003 57.2947 36.9134 57.2879Z" fill="#405865"/>
<path d="M52.968 58.7179C53.2573 56.1522 55.0894 54.3869 57.1969 53.0527L57.5757 52.8132L50.5161 43.9048L50.3646 43.8774C49.5174 43.7201 48.6772 43.5695 47.83 43.4395C45.2541 43.0906 43.429 42.8648 41.838 42.7074C41.4041 42.6664 40.9633 42.6322 40.5294 42.6048H40.488L40.0955 42.5706H39.9921L39.8888 42.5569C38.9108 42.4953 37.9397 42.4474 36.9686 42.4132H36.9617C36.8446 42.4132 36.7275 42.4064 36.6104 42.3995C36.514 42.3995 36.4176 42.3995 36.3211 42.3995C32.7535 42.3243 29.599 42.4474 27.3537 42.5774C26.5755 42.6253 21.5476 43.1248 20.6109 43.2343L20.4594 43.2548C19.3161 43.4122 16.9675 43.7748 16.1135 43.9048L9.05386 52.8132L9.42578 53.0527C11.5402 54.3869 13.3723 56.1522 13.6615 58.7179C13.9508 61.2358 12.5802 64.1643 11.6229 66.4564C10.3349 69.5285 9.13651 72.5664 9.13651 75.9464C9.13651 76.6716 9.24671 77.3901 9.46711 78.0811C10.1696 80.3322 11.9121 82.1385 13.7511 83.5753C15.8931 85.2516 18.3794 86.6269 20.79 87.8995C23.297 89.22 25.8936 90.4722 28.3111 91.9364C29.9227 92.9148 32.0716 94.3516 32.9601 96.0416L33.3251 96.7327L33.6902 96.0416C34.5786 94.3516 36.7275 92.9148 38.3392 91.9364C40.7566 90.4722 43.3532 89.22 45.8602 87.8995C48.2708 86.6269 50.7572 85.2516 52.8992 83.5753C54.7381 82.1385 56.4806 80.3322 57.1831 78.0811C57.3966 77.3901 57.5068 76.6716 57.5068 75.9464C57.5068 72.5664 56.3084 69.5353 55.0274 66.4564C54.07 64.1643 52.6994 61.2358 52.9887 58.7179M33.3251 95.85C29.9296 89.4048 9.54287 85.6143 9.54287 75.9395C9.54287 66.2648 19.8396 59.1627 9.64618 52.7106L16.3339 44.2606C28.3317 42.2558 39.6409 42.2422 50.3026 44.2606L56.9903 52.7106C46.7969 59.1558 57.0936 66.2648 57.0936 75.9395C57.0936 85.6143 36.7137 89.4048 33.3182 95.85" fill="#405865"/>
<path fill-rule="evenodd" clip-rule="evenodd" d="M23.2282 33.9906L24.7159 33.799L23.2282 33.1558V33.9906Z" fill="#EAD5B0"/>
<path d="M53.1127 67.2021C51.99 64.5064 50.6332 61.4685 50.9707 58.4921C51.2462 56.0632 52.5686 54.1748 54.4419 52.6285L54.745 52.3821L49.3797 45.7179L49.2282 45.6906C38.6698 43.7953 27.9254 44.0142 17.3601 45.7111L17.2017 45.7385L11.8502 52.389L12.1532 52.6353C14.0197 54.1816 15.349 56.07 15.6245 58.499C15.9619 61.4753 14.6051 64.5132 13.4825 67.209C12.3116 70.0074 11.1476 72.8742 11.1476 75.9464C11.1476 76.4732 11.2303 77 11.3887 77.4995C12.5733 81.3037 18.345 84.3553 21.7336 86.1411C24.2888 87.4821 26.8923 88.7411 29.358 90.2395C30.6459 91.0195 31.927 91.8816 33.0152 92.9148L33.2976 93.1885L33.58 92.9148C34.6613 91.8816 35.9492 91.0195 37.2303 90.2395C39.696 88.7479 42.3063 87.489 44.8615 86.1411C48.5394 84.2048 55.4406 80.6537 55.4406 75.9395C55.4406 72.8674 54.2766 70.0006 53.1058 67.2021M44.6618 85.7853C42.1066 87.1332 39.4756 88.399 37.0099 89.8974C35.7633 90.65 34.4133 91.5532 33.2838 92.6274C32.1612 91.5532 30.8043 90.65 29.5577 89.8974C27.092 88.4058 24.461 87.1332 21.9058 85.7853C18.6756 84.0885 12.9039 81.0437 11.7606 77.3764C11.616 76.9111 11.5402 76.4253 11.5402 75.9395C11.5402 72.929 12.6973 70.0964 13.8406 67.3527C14.9977 64.5816 16.3614 61.5095 16.0102 58.4511C15.7209 55.8785 14.3021 53.9011 12.4012 52.3274L15.2525 48.7764L22.2639 55.6458C17.8147 63.09 18.8822 75.0158 25.5768 80.2227C27.8083 81.9537 30.4393 82.7748 33.2769 82.7748C38.1394 82.7748 41.7002 80.4006 43.98 76.9179L49.9238 82.7406C48.0642 84.0064 46.0668 85.0395 44.6549 85.7853M34.4822 49.789L34.6268 49.8095C35.6186 49.9121 36.5416 50.1174 37.4094 50.4253H37.4163C37.4989 50.4527 37.5884 50.4869 37.6849 50.5279L37.7331 50.5416C37.8226 50.5758 37.919 50.6169 38.0292 50.6648L38.0912 50.6921L38.1739 50.7264L38.2427 50.7606C39.1243 51.1574 39.9302 51.65 40.6671 52.2385L40.6878 52.2521C40.8049 52.3411 40.977 52.4848 41.1699 52.6558L41.3145 52.7858L41.3559 52.8269C42.1066 53.5179 42.7678 54.3048 43.3532 55.1669L43.367 55.1874L43.4014 55.2285C43.4634 55.3311 43.5323 55.4269 43.5736 55.4953L43.5874 55.5158L43.608 55.55C44.1177 56.3574 44.5585 57.2195 44.9304 58.1295H44.8271C43.2912 58.1432 42.5267 58.9369 41.9619 59.8127C41.9413 59.84 41.7898 60.1137 41.6865 60.2779C41.4316 60.709 41.2043 61.1332 40.9357 61.4616C40.9908 61.2495 41.039 61.0374 41.0666 60.8185C41.0804 60.7227 41.0941 60.62 41.101 60.5242C41.101 60.3942 41.1148 60.1685 41.1148 60.1685C41.0872 59.3953 40.7084 58.6906 40.4743 57.9585C40.977 57.8011 41.4867 57.7669 41.9757 57.459C42.2719 57.2674 42.265 56.8295 42.079 56.5627C42.079 56.5627 42.0515 56.3985 42.0239 56.33L41.9137 56.1521C41.8517 56.07 41.7691 55.9948 41.6796 55.9469C41.5694 55.6937 41.2663 55.4885 40.9839 55.5364C40.7566 55.5842 40.4812 55.7211 40.2676 55.8169C39.9853 55.9469 39.7098 56.0769 39.4136 56.1795C39.331 56.2069 39.2414 56.2342 39.1519 56.2548C38.8351 56.029 38.4976 55.8237 38.1532 55.6527C38.043 55.5979 37.919 55.5432 37.7193 55.4611C37.616 55.42 37.5127 55.379 37.4025 55.3379C36.6793 55.0779 35.9423 54.9411 35.1916 54.8864C34.9437 54.8658 34.7026 54.859 34.3514 54.8521C34.2205 54.8521 34.0827 54.8521 33.9519 54.8521C33.6833 54.8521 33.1736 54.7906 33.1185 55.1737C33.0634 55.5569 33.5662 55.6253 33.8279 55.6937H33.8623C34.0759 55.7553 33.9312 55.7211 34.5993 55.9058C35.3363 56.1042 36.0388 56.3027 36.6793 56.6516C36.2936 56.7132 36.0181 56.9937 35.8459 57.37L35.7702 57.5411C35.6875 57.7532 35.6255 57.9927 35.5842 58.1979L35.5084 58.6221L36.0388 58.4785C36.2592 58.4169 36.5209 58.3895 36.7413 58.3348C36.9686 58.3553 37.251 58.3895 37.4576 58.4716H37.4645H37.4714C37.6504 58.5332 37.8226 58.6085 37.9948 58.6906L38.0361 58.7042C38.2634 58.8069 38.3461 58.8685 38.3943 58.93L38.4149 58.9574V58.9711L38.4287 58.9779C38.7042 59.4774 38.8557 60.3053 38.9521 60.9964V61.0442C38.959 61.1332 38.9797 61.2495 38.9935 61.3727C39.0072 61.5027 39.021 61.619 39.0348 61.7216L39.0555 61.8927C38.8557 61.8448 38.6698 61.79 38.5251 61.749L38.3874 61.7148H38.3805L38.3461 61.7079C38.1739 61.66 37.8226 61.5779 37.6298 61.5369C37.5127 61.5095 37.3956 61.489 37.2785 61.4685C36.7344 61.3864 36.149 61.7285 35.7357 62.0432C35.6049 62.139 35.474 62.2485 35.35 62.3579C34.9368 62.7479 34.7095 62.9806 34.4753 63.2474L34.3376 63.4116C34.1172 63.6785 33.9312 63.9248 33.7177 64.2121C33.6282 64.3353 33.5455 64.4653 33.4629 64.5953C33.3596 64.7664 33.2631 64.9237 33.2012 65.04C33.0841 65.2453 32.9876 65.4506 32.905 65.6558H31.4035H31.0661H29.7023V59.7648H28.4557L28.4144 59.0737H28.7863V57.7737H28.4626V57.3564H28.7174V56.9321C28.7174 56.5148 28.4282 56.2137 28.0631 56.0564L28.0769 55.9332C28.0769 55.6664 27.8978 55.4406 27.6568 55.3585L27.4846 55.3311H27.3331C27.0507 55.3927 26.8441 55.639 26.8441 55.9264L26.8578 56.0632C26.4997 56.2206 26.2242 56.5216 26.2242 56.9321V57.3564H26.479V57.7737H26.1622V59.0737H26.5548L26.5135 59.7648H25.2668V65.6558H24.3302H22.691H20.1426C20.1426 65.5737 20.1426 65.4985 20.1495 65.4164C20.1426 65.3479 20.1357 65.2521 20.1426 65.1153C20.1564 64.8006 20.1702 64.7116 20.2046 64.3285L20.2184 64.1437L20.2321 64C20.2872 63.3158 20.3217 63.1106 20.4181 62.4879C20.4319 62.3853 20.4525 62.2827 20.4663 62.1937C20.549 61.7148 20.6316 61.3521 20.7074 61.01C20.7487 60.8321 20.7831 60.6885 20.8245 60.5448L20.8382 60.4969C20.8865 60.3258 20.9347 60.1479 21.0035 59.9016C21.0862 59.6211 21.1619 59.3748 21.2584 59.1148C21.3204 58.93 21.3892 58.7385 21.4581 58.5537L21.4788 58.5058C21.6785 57.9585 21.7129 57.8695 21.9609 57.3632L22.0022 57.2811C22.2777 56.6995 22.5808 56.1385 22.9114 55.6048C23.1042 55.2353 23.4486 54.7837 23.7792 54.3664C23.8343 54.2979 23.8825 54.2295 23.9376 54.1679L23.9789 54.1132C24.3508 53.6411 24.6608 53.3127 25.074 52.9295L25.1016 52.9021C25.6457 52.3958 26.2311 51.9306 26.8578 51.5337L26.8992 51.5064C27.3193 51.2327 27.1333 51.3627 27.6292 51.0821C27.705 51.0411 27.767 51.0069 27.8221 50.9864C28.4833 50.6511 29.1858 50.3774 29.9365 50.1721L29.9778 50.1585C30.3291 50.0558 30.6115 50.0011 30.887 49.9532C31.6446 49.8095 32.4435 49.7342 33.2769 49.7342C33.3114 49.7342 33.3596 49.7342 33.4284 49.7342C33.5937 49.7342 33.7384 49.7411 33.9381 49.7548C34.0276 49.7548 34.0965 49.7548 34.1103 49.7548C34.2205 49.7616 34.3445 49.7685 34.4891 49.7753M20.1357 65.9979H20.1495H20.239H20.4801H20.4663C24.1235 65.9979 28.8827 65.9979 32.6984 65.9979C32.2714 66.1279 31.8925 66.2716 31.5619 66.429L31.4655 66.4769C31.3622 66.5248 31.2658 66.5795 31.1694 66.6274C31.0592 66.689 30.9559 66.7506 30.8525 66.8121C29.8676 67.4553 29.4819 68.2353 29.4682 69.1179C29.4682 69.5148 29.537 69.9321 29.661 70.37L29.7023 70.5137V70.5274C29.7574 70.6848 29.8125 70.8421 29.8745 70.9995C30.0743 71.5195 30.3222 72.0258 30.577 72.5321C30.763 72.8948 30.9559 73.2506 31.1487 73.6064C31.989 75.1664 32.9188 76.8016 33.2907 78.5464C33.5111 79.5795 33.5249 80.64 33.1598 81.6527V81.6732C33.1185 81.7827 33.0772 81.8921 33.029 82.0016C32.9945 82.0837 32.9532 82.1658 32.9119 82.2479H32.8981C32.5744 82.2411 32.2507 82.2137 31.927 82.1864C30.1776 82.0016 28.4833 81.4611 26.9818 80.5306C22.14 77.5337 19.998 71.3895 20.1633 66.0116V65.9979H20.1357ZM26.6788 60.6269V60.1069H27.216V60.6269H27.7532V60.1069H28.2904V60.6269H28.8276V60.1069H29.3649V61.2495H25.6181V60.1069H26.1553V60.6269H26.6857H26.6788ZM27.4708 56.2753C27.9667 56.2753 28.3662 56.5764 28.3662 56.939V57.0279H26.5686V56.939C26.5686 56.5764 26.9749 56.2753 27.4708 56.2753ZM27.1884 55.9332C27.1884 55.7827 27.3124 55.6664 27.4639 55.6664C27.6155 55.6664 27.7394 55.7827 27.7394 55.9332V55.9606C27.6499 55.9469 27.5604 55.94 27.4777 55.94C27.3882 55.94 27.2917 55.9469 27.1953 55.9674V55.94L27.1884 55.9332ZM28.1045 57.3564V57.7737H27.6637V57.3564H28.1045ZM27.2917 57.7737H26.8441V57.3564H27.2917V57.7737ZM28.4419 58.7385H26.5066V58.109H28.4419V58.7385ZM28.1114 59.7648H26.8647L26.9061 59.0737H28.07L28.1114 59.7648ZM29.358 63.1995H25.6112V61.5916H29.358V63.1995ZM29.358 63.5485V65.6216H27.9736V64.4927C27.9736 64.1848 27.7601 63.8974 27.4708 63.8974C27.1816 63.8974 26.968 64.1779 26.968 64.4927V65.6216H25.6181V63.5485H29.3649H29.358ZM33.2838 82.2548C34.4202 79.8737 33.5524 77.4721 32.3953 75.1937C31.7272 73.88 30.9627 72.6142 30.4255 71.41C30.0743 70.6232 29.7023 69.6174 29.847 68.7279C29.9503 68.0985 30.336 67.4964 30.8801 67.1611C31.3484 66.8737 31.7961 66.6616 32.3127 66.47L32.3678 66.4495L32.5744 66.3811C31.2245 68.899 31.7272 71.3074 33.821 73.4764C35.0125 74.7148 36.7137 75.3716 38.47 75.9464L38.3736 78.7174H39.9646V78.4437C39.9439 77.7664 39.9233 77.0821 39.9026 76.4048C40.9426 76.7332 41.9619 77.0821 42.8711 77.5474C40.6878 80.3869 37.492 82.2548 33.2769 82.2548H33.2838ZM39.8613 71.2595L40.3847 71.7864L40.5845 71.6016L40.0059 71.0132C40.4329 71.2321 40.7911 71.5332 41.0941 71.9232L41.1148 72.0053L41.101 72.1011L40.9839 73.2985L40.3847 72.6758L40.3159 72.6279L40.2883 72.5321C40.1643 72.0669 40.061 71.6632 39.8613 71.2732M40.0541 72.7306L39.7993 73.3053C39.7786 72.7785 39.7649 72.2448 39.7511 71.7179C39.8682 72.019 39.9439 72.3337 40.0404 72.6827L40.0541 72.7032V72.7374V72.7306ZM40.3641 70.9106L40.9151 71.0885L40.9977 70.8285L40.3365 70.6164C40.6465 70.63 40.9495 70.6779 41.2457 70.7737L41.3076 70.8011L41.3421 70.8627L42.0033 72.0053L41.411 71.8821L41.4041 71.8685C41.1148 71.4716 40.7704 71.1569 40.3778 70.9106M41.4316 70.5206L41.3903 70.5343L41.3559 70.5206C41.0184 70.4111 40.6602 70.3564 40.3021 70.3427L41.0528 70.2195L41.0046 69.9527L40.123 70.1032C40.3847 69.9458 40.6671 69.8158 40.9082 69.7269L40.9839 69.6927L41.0872 69.7064L42.3683 69.9048L41.4316 70.5274V70.5206ZM41.2457 68.0437L40.9151 68.1737L41.2801 67.9069L41.2457 68.0369V68.0437ZM41.1561 68.3721L40.8806 69.3916V69.4327L40.8324 69.4532C40.4605 69.5969 40.0128 69.809 39.6478 70.0827L40.5156 69.1042L40.309 68.9264L39.5445 69.7885C39.6547 69.4737 39.7993 69.1658 39.999 68.8785L40.0404 68.8237L40.1023 68.8032L41.1561 68.379V68.3721ZM38.7042 77.6021L38.718 77.1848L39.6822 77.8964L39.696 78.3274L38.7111 77.6021H38.7042ZM39.3034 78.4711H38.7249L38.6766 78.4369L38.6904 78.0195L39.3034 78.4711ZM39.4963 71.7932L39.51 72.2311L38.9108 71.7864L38.9246 71.369L39.4963 71.7932ZM38.9384 70.9516L38.9521 70.5753L38.9728 70.5548L39.4756 70.9311V71.3621L38.9384 70.9585V70.9516ZM39.5238 72.6621L39.5376 73.1L38.8833 72.6142L38.897 72.1969L39.5238 72.6621ZM39.5514 73.5311L39.5651 73.969L38.8557 73.4421L38.8695 73.0248L39.5514 73.5311ZM39.5789 74.4069L39.5927 74.8448L38.8213 74.2769L38.8351 73.8595L39.5789 74.4069ZM39.6065 75.2827L39.6202 75.7206L38.7937 75.1116L38.8075 74.6942L39.6065 75.2827ZM39.634 76.1585L39.6478 76.5964L38.7662 75.9464L38.78 75.529L39.634 76.1585ZM39.6616 77.0274L39.6753 77.4653L38.7386 76.7742L38.7524 76.3569L39.6616 77.0274ZM39.7649 68.7416C39.5927 69.0085 39.4549 69.2821 39.3447 69.5627V68.5706H39.0692V69.7748C38.9453 69.3985 38.7731 69.0427 38.5458 68.7006L38.532 68.6321L39.145 67.469L39.7786 68.6664V68.7074L39.7717 68.7416H39.7649ZM38.7662 69.7543L38.0086 68.9879L37.8088 69.1795L38.8075 70.1921H38.8006C38.4218 69.8706 37.9053 69.6174 37.492 69.46L37.4438 69.3985L37.1614 68.3448L38.1945 68.7621L38.2634 68.7895L38.2978 68.8374C38.4976 69.1316 38.6491 69.4395 38.7662 69.7543ZM37.0719 68.0164L37.0374 67.8932L37.3818 68.1395L37.0719 68.0164ZM37.2372 69.6995L37.3129 69.6858L37.3818 69.7064L38.1601 70.0827L37.3818 69.9527L37.3336 70.2195L38.0843 70.3427C37.7331 70.3564 37.3818 70.4179 37.0443 70.5206H37.0099H36.9686L36.0181 69.8911L37.2303 69.6995H37.2372ZM37.065 70.8627L37.1063 70.8079L37.1614 70.7737C37.4576 70.6779 37.7744 70.63 38.0912 70.6164L37.3956 70.8421L37.4851 71.1021L38.0499 70.9174C37.6711 71.1569 37.3474 71.4579 37.0581 71.8274L37.0306 71.8548L37.0099 71.8821L36.4107 72.0053L37.0719 70.8627H37.065ZM37.3198 71.9437C37.6091 71.5879 37.9259 71.3074 38.3047 71.0885L37.7951 71.5879L37.9948 71.7795L38.6353 71.15C38.3736 71.5948 38.2359 72.0327 38.105 72.5664L38.0843 72.6279L38.043 72.6758L37.4438 73.2985L37.3267 72.1011V72.0121L37.3405 71.9369L37.3198 71.9437ZM38.3736 72.5869C38.4494 72.2927 38.5251 72.0327 38.6284 71.7795L38.5802 73.2437L38.3529 72.7306V72.6758L38.3736 72.5869ZM39.9095 76.0695C39.8819 75.3579 39.8613 74.6532 39.8406 73.9416L40.0886 73.3806V74.1606H40.3572L40.371 73.4148L40.6396 74.1127L40.9013 74.0169L40.612 73.2711L41.1492 73.8253L41.349 73.6406L41.2594 73.5448L41.3421 72.7442L41.5556 73.5242L41.8242 73.4558L41.6176 72.6964L42.0721 73.3327L42.2994 73.1753L41.7966 72.4637L42.4923 72.9016L42.6438 72.6758L41.9895 72.2653L42.2099 72.3132L42.2925 72.45L42.451 72.3611L42.7471 72.4227L42.8022 72.1558L42.7196 72.1421L42.8849 71.9848L42.2099 71.2937L43.0364 71.7658L43.1741 71.5332L42.2719 71.0132L43.2774 71.239L43.3394 70.9721L42.5061 70.7874L43.3601 70.76V70.4864L42.4027 70.5206L43.3119 70.2264L43.2292 69.9664L42.3201 70.2537L42.7815 69.9458L43.119 69.72L42.9606 69.4942L42.7058 69.6653L42.0308 69.5627L42.9124 69.4669L42.8849 69.1932L41.8862 69.3027L42.7884 68.9195L42.6782 68.6732L41.7691 69.0632L42.5198 68.4269L42.3408 68.2216L41.5969 68.8511L42.1272 68.0164L41.8931 67.8727L41.8793 67.8932L41.8449 67.8042L41.5763 67.9137L41.6176 67.77L41.5212 67.7427L41.7002 67.6127L41.5349 67.3937L40.6671 68.0232L41.3076 67.2021L41.0872 67.0379L40.3847 67.9274L40.7704 66.8806L40.5087 66.7916L40.185 67.6742L40.2676 66.7437L39.9921 66.7164L39.9026 67.7427L39.696 66.7232L39.4274 66.7779L39.634 67.7906L39.3103 67.1679L39.4343 66.9353L39.1863 66.8121L39.1588 66.8669V66.8464L38.9039 66.9695L39.0072 67.1611L38.7042 67.7427L38.9108 66.73L38.6422 66.6753L38.4356 67.6948L38.3392 66.6685L38.0637 66.6958L38.1463 67.6264L37.8226 66.7437L37.5609 66.8395L37.9466 67.8864L37.251 66.99L37.0306 67.1542L37.6711 67.9753L36.8033 67.3458L36.638 67.5648L36.8653 67.729L36.7482 67.7564L36.7757 67.8658L36.4933 67.7495L36.4382 67.8795L36.2385 68.0027L36.7688 68.8374L36.025 68.2079L35.8459 68.4132L36.5966 69.0495L35.6875 68.6595L35.5773 68.9058L36.4796 69.289L35.4809 69.1795L35.4533 69.4532L36.3349 69.549L35.7288 69.6448L35.4947 69.4874L35.3363 69.7132L35.5773 69.8774L35.5911 69.9458L35.6668 69.9321L36.1421 70.2469L35.2398 69.9595L35.1572 70.2195L36.0663 70.5137L35.1159 70.4795V70.7532L35.9561 70.7806L35.1227 70.9653L35.1847 71.2321L36.1972 71.0064L35.2949 71.5264L35.4327 71.759L36.2592 71.2869L35.5842 71.9779L35.7495 72.1353L35.6737 72.149L35.7288 72.4158L36.025 72.3542L36.1903 72.4432L36.2729 72.3064L36.4933 72.2585L35.839 72.669L35.9906 72.8948L36.6862 72.4569L36.1834 73.1685L36.4107 73.3258L36.8653 72.6895L36.6586 73.449L36.9272 73.5174L37.1408 72.7374L37.2234 73.5379L37.1339 73.6337L37.3336 73.8185L37.8708 73.2642L37.5816 74.01L37.8433 74.1058L38.1119 73.4079V74.1537H38.4012L38.3874 73.3737L38.6078 73.8732L38.5458 75.6111C36.8584 75.0569 35.2536 74.4206 34.131 73.2574C31.5688 70.5958 32.0027 68.16 33.0634 66.3264V66.3195V66.3058V66.2921V66.2785V66.2716V66.2579L33.1116 66.1827V66.1758V66.169L33.1598 66.0869L33.2012 66.0185V66.0048H33.8279L46.425 66.1485C46.4043 70.2127 45.2955 74.2564 43.0777 77.2806C42.0997 76.7743 40.9977 76.4116 39.8888 76.0558M42.0584 71.5606L42.6025 72.1216L42.3476 72.0669L42.0584 71.5606ZM41.3352 68.6937L41.4592 68.2353L41.6865 68.1464L41.3352 68.7006V68.6937ZM36.9479 68.6937L36.576 68.1053L36.817 68.2011L36.9479 68.6937ZM36.3143 71.5606L36.025 72.0669L35.7702 72.1216L36.3143 71.5606ZM46.4181 65.7106H46.3906C44.0695 65.7106 41.7415 65.7106 39.4205 65.7106C41.776 64.26 42.4785 62.2758 43.7527 62.4264C44.4827 62.5085 45.5159 62.7616 46.1908 62.8506C46.3286 63.7879 46.3974 64.739 46.4181 65.69V65.7106ZM45.9773 62.4742C45.6398 62.4195 45.3023 62.3511 44.9649 62.2895C44.5792 62.2142 44.1797 62.139 43.7871 62.0911C43.6356 62.0774 43.4841 62.0774 43.3394 62.1048C42.63 62.2416 42.0239 62.9327 41.5487 63.4253C40.8186 64.1916 40.1368 64.8621 39.2276 65.4232L38.6835 65.7174L33.2631 65.6558C33.9657 64.1027 36.0939 61.6258 37.2096 61.8037C37.7537 61.8927 38.4838 62.1116 39.083 62.2553C39.145 62.8848 39.207 63.5279 39.3172 64.1437C39.3585 64.3695 39.3447 64.8074 39.7235 64.7937C40.1023 64.78 40.061 64.3353 40.1023 64.1095C40.2263 63.4185 40.4949 62.7616 40.7222 62.0911C42.0997 61.1948 42.1479 58.4716 44.8202 58.4442C44.9029 58.4442 44.9786 58.4442 45.0613 58.4648C45.5503 59.7442 45.9084 61.099 46.1357 62.4948L45.9773 62.4674V62.4742ZM36.941 56.9732L38.5389 56.6448C39.4825 56.7132 40.5914 55.94 41.039 55.8579C41.1355 55.8374 41.2939 55.94 41.349 56.0495L40.4054 56.4874L40.5225 56.7337L41.5418 56.2548C41.6589 56.3506 41.7278 56.5216 41.714 56.6242L40.6189 56.8842L40.6809 57.1511L41.838 56.8842C41.8655 56.9869 41.8586 57.11 41.7691 57.1648C41.2594 57.4932 40.5776 57.5069 40.0335 57.7395C40.2401 58.5469 40.7773 59.4706 40.7498 60.3121C40.7498 60.4011 40.7429 60.4832 40.7291 60.5721L40.1299 59.3406L39.8819 59.4569L40.6602 61.0374C40.5982 61.3316 40.5225 61.619 40.4261 61.9064L39.82 59.8537L39.5514 59.929L40.2745 62.3511C40.0748 62.9258 39.8613 63.4937 39.758 64.0616C39.6684 64.5406 39.758 64.6432 39.6547 64.089C39.3654 62.4948 39.3516 59.6827 38.6009 58.6358C38.291 58.4442 37.9535 58.28 37.5747 58.15C37.3749 58.0748 37.0857 58.0132 36.7 57.9858C36.4933 58.0406 36.1076 58.1227 35.901 58.1774C35.9699 57.8011 36.211 56.8911 36.941 56.98M33.9037 55.3653C33.27 55.1874 33.2976 55.2011 33.9381 55.1874C35.0814 55.1669 36.1972 55.2695 37.2647 55.6527C37.7262 55.8169 38.1808 56.0358 38.6284 56.3232H38.5527H38.5045L37.2027 56.59C36.2041 55.9195 35.0608 55.7074 33.8968 55.379M50.3715 82.4258L44.2692 76.4458C48.7736 68.9674 47.6372 56.8979 40.8255 51.7185C38.6284 50.049 36.0457 49.2553 33.27 49.2553C28.4075 49.2553 24.8329 51.6569 22.5532 55.1737L15.59 48.3521L17.3945 46.1011C27.9254 44.4179 38.6009 44.1921 49.118 46.0806L54.1458 52.3274C52.238 53.9011 50.8261 55.8785 50.5368 58.4511C50.1924 61.5095 51.5492 64.5816 52.7063 67.3527C53.8565 70.0964 55.0067 72.929 55.0067 75.9395C55.0067 78.4437 52.8647 80.6537 50.3646 82.4258" fill="#405865"/>
</g>
</g>
<defs>
<linearGradient id="paint0_linear_28_5375" x1="19.5534" y1="34.789" x2="49.1279" y2="34.789" gradientUnits="userSpaceOnUse">
<stop stop-color="#D7B46D"/>
<stop offset="0.51" stop-color="#ECD8B0"/>
<stop offset="1" stop-color="#D7B46B"/>
</linearGradient>
<linearGradient id="paint1_linear_28_5375" x1="19.6009" y1="35.6868" x2="46.1933" y2="35.6868" gradientUnits="userSpaceOnUse">
<stop stop-color="#B59444"/>
<stop offset="0.51" stop-color="#C7A765"/>
<stop offset="1" stop-color="#B69441"/>
</linearGradient>
<linearGradient id="paint2_linear_28_5375" x1="18.5215" y1="39.1705" x2="46.512" y2="39.1705" gradientUnits="userSpaceOnUse">
<stop stop-color="#DBB772"/>
<stop offset="0.51" stop-color="#DFC189"/>
<stop offset="0.52" stop-color="#DEC088"/>
<stop offset="1" stop-color="#DBB772"/>
</linearGradient>
<radialGradient id="paint3_radial_28_5375" cx="0" cy="0" r="1" gradientUnits="userSpaceOnUse" gradientTransform="translate(34.6482 70.2239) scale(24.8774 24.3716)">
<stop stop-color="#00A468"/>
<stop offset="0.34" stop-color="#009D61"/>
<stop offset="0.82" stop-color="#008C4E"/>
<stop offset="1" stop-color="#008546"/>
</radialGradient>
<radialGradient id="paint4_radial_28_5375" cx="0" cy="0" r="1" gradientUnits="userSpaceOnUse" gradientTransform="translate(29.0913 64.0077) scale(17.9555 17.5911)">
<stop stop-color="#DFEFDF"/>
<stop offset="0.14" stop-color="#D8ECDF"/>
<stop offset="0.33" stop-color="#C6E6E1"/>
<stop offset="0.56" stop-color="#A9DCE4"/>
<stop offset="0.81" stop-color="#80CFE8"/>
<stop offset="1" stop-color="#5CC3EC"/>
</radialGradient>
<linearGradient id="paint5_linear_28_5375" x1="19.2019" y1="74.3152" x2="44.9884" y2="74.3152" gradientUnits="userSpaceOnUse">
<stop stop-color="white"/>
<stop offset="0.18" stop-color="#FEFCF9"/>
<stop offset="0.41" stop-color="#FDF3E8"/>
<stop offset="0.68" stop-color="#FBE6CD"/>
<stop offset="0.97" stop-color="#F8D3A7"/>
<stop offset="1" stop-color="#F8D2A3"/>
</linearGradient>
<linearGradient id="paint6_linear_28_5375" x1="19.1589" y1="73.6501" x2="36.5152" y2="73.6501" gradientUnits="userSpaceOnUse">
<stop stop-color="#00ADB3"/>
<stop offset="0.18" stop-color="#05AEB3"/>
<stop offset="0.4" stop-color="#14B1B6"/>
<stop offset="0.65" stop-color="#2CB6BB"/>
<stop offset="0.9" stop-color="#4FBDC2"/>
<stop offset="1" stop-color="#5EC1C5"/>
</linearGradient>
<linearGradient id="paint7_linear_28_5375" x1="40.3927" y1="57.2808" x2="40.3927" y2="65.2929" gradientUnits="userSpaceOnUse">
<stop stop-color="#13A476"/>
<stop offset="0.3" stop-color="#0F9E6F"/>
<stop offset="0.72" stop-color="#078D5C"/>
<stop offset="1" stop-color="#007F4C"/>
</linearGradient>
<linearGradient id="paint8_linear_28_5375" x1="29.9715" y1="70.73" x2="45.6955" y2="70.73" gradientUnits="userSpaceOnUse">
<stop stop-color="#E7B588"/>
<stop offset="0.3" stop-color="#E2AE80"/>
<stop offset="0.75" stop-color="#D59D6B"/>
<stop offset="1" stop-color="#CD915D"/>
</linearGradient>
<linearGradient id="paint9_linear_28_5375" x1="43.9265" y1="61.359" x2="43.9265" y2="64.9511" gradientUnits="userSpaceOnUse">
<stop stop-color="#13A476"/>
<stop offset="0.3" stop-color="#0F9E6F"/>
<stop offset="0.72" stop-color="#078D5C"/>
<stop offset="1" stop-color="#007F4C"/>
</linearGradient>
<linearGradient id="paint10_linear_28_5375" x1="26.7056" y1="63.988" x2="30.6108" y2="63.988" gradientUnits="userSpaceOnUse">
<stop stop-color="#DAD9D8"/>
<stop offset="0.74" stop-color="#EFF1F3"/>
<stop offset="1" stop-color="#F8FCFF"/>
</linearGradient>
<linearGradient id="paint11_linear_28_5375" x1="26.5936" y1="57.8016" x2="28.5841" y2="57.8016" gradientUnits="userSpaceOnUse">
<stop stop-color="#DAD9D8"/>
<stop offset="0.74" stop-color="#EFF1F3"/>
<stop offset="1" stop-color="#F8FCFF"/>
</linearGradient>
<clipPath id="clip0_28_5375">
<rect width="208" height="78" fill="white" transform="translate(8 25)"/>
</clipPath>
</defs>
</svg>
