<svg width="224" height="128" viewBox="0 0 224 128" fill="none" xmlns="http://www.w3.org/2000/svg">
<path d="M29.2305 79.4297C27.6354 79.4297 26.4049 79.2975 25.5391 79.0332C24.6732 78.778 24.0716 78.3678 23.7344 77.8027C23.4062 77.2376 23.2422 76.5085 23.2422 75.6152V71.3086C23.2422 70.7161 23.1055 70.2422 22.832 69.8867C22.5677 69.5312 22.1758 69.2715 21.6562 69.1074C21.1367 68.9434 20.4987 68.8613 19.7422 68.8613V65.5938C20.4987 65.5938 21.1367 65.5163 21.6562 65.3613C22.1758 65.1973 22.5677 64.9375 22.832 64.582C23.1055 64.2174 23.2422 63.7435 23.2422 63.1602V58.8125C23.2422 57.9193 23.4062 57.1947 23.7344 56.6387C24.0716 56.0736 24.6732 55.6634 25.5391 55.4082C26.4049 55.1439 27.6354 55.0117 29.2305 55.0117V58.0879C28.7474 58.097 28.3236 58.1562 27.959 58.2656C27.6035 58.3659 27.3301 58.5527 27.1387 58.8262C26.9473 59.0996 26.8516 59.4961 26.8516 60.0156V64.1035C26.8516 64.9603 26.5781 65.6439 26.0312 66.1543C25.4844 66.6556 24.6914 66.9837 23.6523 67.1387V67.3027C24.6914 67.4486 25.4844 67.7767 26.0312 68.2871C26.5781 68.7884 26.8516 69.4674 26.8516 70.3242V74.4121C26.8516 74.9316 26.9473 75.3281 27.1387 75.6016C27.3301 75.8841 27.6035 76.0755 27.959 76.1758C28.3236 76.276 28.7474 76.3307 29.2305 76.3398V79.4297ZM36.7227 75H32.5527V53.7266H36.7227V75ZM55.002 67.3301C55.002 68.6061 54.8288 69.7363 54.4824 70.7207C54.1452 71.7051 53.6484 72.5391 52.9922 73.2227C52.3451 73.8971 51.5612 74.4076 50.6406 74.7539C49.7292 75.1003 48.6992 75.2734 47.5508 75.2734C46.4753 75.2734 45.4863 75.1003 44.584 74.7539C43.6908 74.4076 42.9115 73.8971 42.2461 73.2227C41.5898 72.5391 41.0794 71.7051 40.7148 70.7207C40.3594 69.7363 40.1816 68.6061 40.1816 67.3301C40.1816 65.6348 40.4824 64.1992 41.084 63.0234C41.6855 61.8477 42.5423 60.9544 43.6543 60.3438C44.7663 59.7331 46.0924 59.4277 47.6328 59.4277C49.0638 59.4277 50.3307 59.7331 51.4336 60.3438C52.5456 60.9544 53.416 61.8477 54.0449 63.0234C54.6829 64.1992 55.002 65.6348 55.002 67.3301ZM44.4336 67.3301C44.4336 68.3327 44.543 69.1758 44.7617 69.8594C44.9805 70.543 45.3223 71.0579 45.7871 71.4043C46.252 71.7507 46.8581 71.9238 47.6055 71.9238C48.3438 71.9238 48.9408 71.7507 49.3965 71.4043C49.8613 71.0579 50.1986 70.543 50.4082 69.8594C50.627 69.1758 50.7363 68.3327 50.7363 67.3301C50.7363 66.3184 50.627 65.4798 50.4082 64.8145C50.1986 64.14 49.8613 63.6341 49.3965 63.2969C48.9316 62.9596 48.3255 62.791 47.5781 62.791C46.4753 62.791 45.6732 63.1693 45.1719 63.9258C44.6797 64.6823 44.4336 65.8171 44.4336 67.3301ZM62.918 81.7266C60.7852 81.7266 59.1536 81.3529 58.0234 80.6055C56.9023 79.8672 56.3418 78.8281 56.3418 77.4883C56.3418 76.5677 56.6289 75.7975 57.2031 75.1777C57.7773 74.5579 58.6204 74.1159 59.7324 73.8516C59.304 73.6693 58.9303 73.373 58.6113 72.9629C58.2923 72.5436 58.1328 72.1016 58.1328 71.6367C58.1328 71.0534 58.3014 70.5703 58.6387 70.1875C58.9759 69.7956 59.4635 69.4128 60.1016 69.0391C59.2995 68.6927 58.6615 68.1367 58.1875 67.3711C57.7227 66.6055 57.4902 65.7031 57.4902 64.6641C57.4902 63.5521 57.7318 62.6087 58.2148 61.834C58.707 61.0501 59.418 60.4531 60.3477 60.043C61.2865 59.6328 62.4258 59.4277 63.7656 59.4277C64.0482 59.4277 64.3763 59.446 64.75 59.4824C65.1237 59.5189 65.4655 59.5599 65.7754 59.6055C66.0944 59.651 66.3086 59.6875 66.418 59.7148H71.75V61.834L69.3574 62.4492C69.5762 62.7865 69.7402 63.1465 69.8496 63.5293C69.959 63.9121 70.0137 64.3177 70.0137 64.7461C70.0137 66.3867 69.4395 67.6673 68.291 68.5879C67.1517 69.4993 65.5658 69.9551 63.5332 69.9551C63.0501 69.9277 62.5944 69.8913 62.166 69.8457C61.9564 70.0098 61.7969 70.1829 61.6875 70.3652C61.5781 70.5475 61.5234 70.7389 61.5234 70.9395C61.5234 71.14 61.6055 71.3086 61.7695 71.4453C61.9427 71.5729 62.1979 71.6732 62.5352 71.7461C62.8815 71.8099 63.3099 71.8418 63.8203 71.8418H66.418C68.0951 71.8418 69.3711 72.2018 70.2461 72.9219C71.1302 73.6419 71.5723 74.6992 71.5723 76.0938C71.5723 77.8802 70.8249 79.2656 69.3301 80.25C67.8444 81.2344 65.707 81.7266 62.918 81.7266ZM63.0957 79.0059C64.0892 79.0059 64.9414 78.9102 65.6523 78.7188C66.3724 78.5365 66.9238 78.2721 67.3066 77.9258C67.6895 77.5885 67.8809 77.1829 67.8809 76.709C67.8809 76.3262 67.7669 76.0208 67.5391 75.793C67.3203 75.5742 66.9831 75.4193 66.5273 75.3281C66.0807 75.237 65.5065 75.1914 64.8047 75.1914H62.6445C62.1341 75.1914 61.6738 75.2734 61.2637 75.4375C60.8626 75.6016 60.5436 75.8294 60.3066 76.1211C60.0697 76.4219 59.9512 76.7682 59.9512 77.1602C59.9512 77.7344 60.2246 78.1855 60.7715 78.5137C61.3275 78.8418 62.1022 79.0059 63.0957 79.0059ZM63.7656 67.4121C64.5495 67.4121 65.1237 67.1706 65.4883 66.6875C65.8529 66.2044 66.0352 65.5482 66.0352 64.7188C66.0352 63.7982 65.8438 63.11 65.4609 62.6543C65.0872 62.1895 64.5221 61.957 63.7656 61.957C63 61.957 62.4258 62.1895 62.043 62.6543C61.6602 63.11 61.4688 63.7982 61.4688 64.7188C61.4688 65.5482 61.6556 66.2044 62.0293 66.6875C62.4121 67.1706 62.9909 67.4121 63.7656 67.4121ZM88.1699 67.3301C88.1699 68.6061 87.9967 69.7363 87.6504 70.7207C87.3132 71.7051 86.8164 72.5391 86.1602 73.2227C85.513 73.8971 84.7292 74.4076 83.8086 74.7539C82.8971 75.1003 81.8672 75.2734 80.7188 75.2734C79.6432 75.2734 78.6543 75.1003 77.752 74.7539C76.8587 74.4076 76.0794 73.8971 75.4141 73.2227C74.7578 72.5391 74.2474 71.7051 73.8828 70.7207C73.5273 69.7363 73.3496 68.6061 73.3496 67.3301C73.3496 65.6348 73.6504 64.1992 74.252 63.0234C74.8535 61.8477 75.7103 60.9544 76.8223 60.3438C77.9342 59.7331 79.2604 59.4277 80.8008 59.4277C82.2318 59.4277 83.4987 59.7331 84.6016 60.3438C85.7135 60.9544 86.584 61.8477 87.2129 63.0234C87.8509 64.1992 88.1699 65.6348 88.1699 67.3301ZM77.6016 67.3301C77.6016 68.3327 77.7109 69.1758 77.9297 69.8594C78.1484 70.543 78.4902 71.0579 78.9551 71.4043C79.4199 71.7507 80.026 71.9238 80.7734 71.9238C81.5117 71.9238 82.1087 71.7507 82.5645 71.4043C83.0293 71.0579 83.3665 70.543 83.5762 69.8594C83.7949 69.1758 83.9043 68.3327 83.9043 67.3301C83.9043 66.3184 83.7949 65.4798 83.5762 64.8145C83.3665 64.14 83.0293 63.6341 82.5645 63.2969C82.0996 62.9596 81.4935 62.791 80.7461 62.791C79.6432 62.791 78.8411 63.1693 78.3398 63.9258C77.8477 64.6823 77.6016 65.8171 77.6016 67.3301ZM90.2617 69.2031V65.7852H97.6035V69.2031H90.2617ZM106.846 75.2734C105.333 75.2734 104.043 75 102.977 74.4531C101.91 73.8971 101.099 73.0404 100.543 71.8828C99.987 70.7253 99.709 69.2441 99.709 67.4395C99.709 65.571 100.023 64.0488 100.652 62.873C101.29 61.6882 102.17 60.8177 103.291 60.2617C104.421 59.7057 105.729 59.4277 107.215 59.4277C108.272 59.4277 109.184 59.5326 109.949 59.7422C110.724 59.9427 111.398 60.1842 111.973 60.4668L110.742 63.6934C110.086 63.429 109.475 63.2148 108.91 63.0508C108.345 62.8776 107.78 62.791 107.215 62.791C106.486 62.791 105.88 62.9642 105.396 63.3105C104.913 63.6478 104.553 64.1582 104.316 64.8418C104.079 65.5254 103.961 66.3822 103.961 67.4121C103.961 68.4238 104.089 69.2624 104.344 69.9277C104.599 70.5931 104.968 71.0898 105.451 71.418C105.934 71.737 106.522 71.8965 107.215 71.8965C108.081 71.8965 108.851 71.7826 109.525 71.5547C110.2 71.3177 110.856 70.9896 111.494 70.5703V74.1387C110.856 74.5397 110.186 74.8268 109.484 75C108.792 75.1823 107.912 75.2734 106.846 75.2734ZM119.219 75H115.049V53.7266H119.219V75ZM127.777 59.7148V75H123.607V59.7148H127.777ZM125.699 53.7266C126.319 53.7266 126.852 53.8724 127.299 54.1641C127.745 54.4466 127.969 54.9798 127.969 55.7637C127.969 56.5384 127.745 57.0762 127.299 57.377C126.852 57.6686 126.319 57.8145 125.699 57.8145C125.07 57.8145 124.533 57.6686 124.086 57.377C123.648 57.0762 123.43 56.5384 123.43 55.7637C123.43 54.9798 123.648 54.4466 124.086 54.1641C124.533 53.8724 125.07 53.7266 125.699 53.7266ZM138.469 59.4277C139.882 59.4277 141.098 59.7012 142.119 60.248C143.14 60.7858 143.928 61.5697 144.484 62.5996C145.04 63.6296 145.318 64.8874 145.318 66.373V68.3965H135.461C135.507 69.5723 135.857 70.4974 136.514 71.1719C137.179 71.8372 138.1 72.1699 139.275 72.1699C140.251 72.1699 141.144 72.0697 141.955 71.8691C142.766 71.6686 143.6 71.3678 144.457 70.9668V74.1934C143.701 74.5671 142.908 74.8405 142.078 75.0137C141.258 75.1868 140.26 75.2734 139.084 75.2734C137.553 75.2734 136.195 74.9909 135.01 74.4258C133.834 73.8607 132.909 72.9993 132.234 71.8418C131.569 70.6842 131.236 69.2259 131.236 67.4668C131.236 65.6803 131.537 64.1947 132.139 63.0098C132.749 61.8158 133.597 60.9225 134.682 60.3301C135.766 59.7285 137.029 59.4277 138.469 59.4277ZM138.496 62.3945C137.685 62.3945 137.01 62.6543 136.473 63.1738C135.944 63.6934 135.639 64.5091 135.557 65.6211H141.408C141.399 65.0013 141.285 64.4499 141.066 63.9668C140.857 63.4837 140.538 63.1009 140.109 62.8184C139.69 62.5358 139.152 62.3945 138.496 62.3945ZM157.391 59.4277C159.022 59.4277 160.335 59.8743 161.328 60.7676C162.322 61.6517 162.818 63.0736 162.818 65.0332V75H158.648V66.0723C158.648 64.9785 158.448 64.1536 158.047 63.5977C157.655 63.0417 157.035 62.7637 156.188 62.7637C154.911 62.7637 154.041 63.1966 153.576 64.0625C153.111 64.9284 152.879 66.1771 152.879 67.8086V75H148.709V59.7148H151.895L152.455 61.6699H152.688C153.016 61.1413 153.421 60.7129 153.904 60.3848C154.396 60.0566 154.939 59.8151 155.531 59.6602C156.133 59.5052 156.753 59.4277 157.391 59.4277ZM173.551 71.9512C174.007 71.9512 174.449 71.9056 174.877 71.8145C175.314 71.7233 175.747 71.6094 176.176 71.4727V74.5762C175.729 74.7767 175.173 74.9408 174.508 75.0684C173.852 75.2051 173.132 75.2734 172.348 75.2734C171.436 75.2734 170.616 75.1276 169.887 74.8359C169.167 74.5352 168.597 74.0202 168.178 73.291C167.768 72.5527 167.562 71.5273 167.562 70.2148V62.8457H165.566V61.082L167.863 59.6875L169.066 56.4609H171.732V59.7148H176.012V62.8457H171.732V70.2148C171.732 70.7982 171.896 71.2357 172.225 71.5273C172.562 71.8099 173.004 71.9512 173.551 71.9512ZM185.582 59.4277C186.995 59.4277 188.212 59.7012 189.232 60.248C190.253 60.7858 191.042 61.5697 191.598 62.5996C192.154 63.6296 192.432 64.8874 192.432 66.373V68.3965H182.574C182.62 69.5723 182.971 70.4974 183.627 71.1719C184.292 71.8372 185.213 72.1699 186.389 72.1699C187.364 72.1699 188.257 72.0697 189.068 71.8691C189.88 71.6686 190.714 71.3678 191.57 70.9668V74.1934C190.814 74.5671 190.021 74.8405 189.191 75.0137C188.371 75.1868 187.373 75.2734 186.197 75.2734C184.666 75.2734 183.308 74.9909 182.123 74.4258C180.947 73.8607 180.022 72.9993 179.348 71.8418C178.682 70.6842 178.35 69.2259 178.35 67.4668C178.35 65.6803 178.65 64.1947 179.252 63.0098C179.863 61.8158 180.71 60.9225 181.795 60.3301C182.88 59.7285 184.142 59.4277 185.582 59.4277ZM185.609 62.3945C184.798 62.3945 184.124 62.6543 183.586 63.1738C183.057 63.6934 182.752 64.5091 182.67 65.6211H188.521C188.512 65.0013 188.398 64.4499 188.18 63.9668C187.97 63.4837 187.651 63.1009 187.223 62.8184C186.803 62.5358 186.266 62.3945 185.609 62.3945ZM194.756 79.4297V76.3398C195.239 76.3307 195.658 76.276 196.014 76.1758C196.369 76.0755 196.643 75.8841 196.834 75.6016C197.035 75.3281 197.135 74.9316 197.135 74.4121V70.3242C197.135 69.4674 197.408 68.7884 197.955 68.2871C198.502 67.7767 199.29 67.4486 200.32 67.3027V67.1387C199.29 66.9837 198.502 66.6556 197.955 66.1543C197.408 65.6439 197.135 64.9603 197.135 64.1035V60.0156C197.135 59.4961 197.035 59.0996 196.834 58.8262C196.643 58.5527 196.369 58.3659 196.014 58.2656C195.658 58.1562 195.239 58.097 194.756 58.0879V55.0117C196.351 55.0117 197.581 55.1439 198.447 55.4082C199.313 55.6634 199.91 56.0736 200.238 56.6387C200.576 57.1947 200.744 57.9193 200.744 58.8125V63.1602C200.744 63.7435 200.876 64.2174 201.141 64.582C201.414 64.9375 201.811 65.1973 202.33 65.3613C202.85 65.5163 203.488 65.5938 204.244 65.5938V68.8613C203.488 68.8613 202.85 68.9434 202.33 69.1074C201.811 69.2715 201.414 69.5312 201.141 69.8867C200.876 70.2422 200.744 70.7161 200.744 71.3086V75.6152C200.744 76.5085 200.576 77.2376 200.238 77.8027C199.91 78.3678 199.313 78.778 198.447 79.0332C197.581 79.2975 196.351 79.4297 194.756 79.4297Z" fill="#3375A3"/>
</svg>
