<svg width="224" height="128" viewBox="0 0 224 128" fill="none" xmlns="http://www.w3.org/2000/svg">
<path d="M42.5702 47.3821H36.5202C35.5649 47.3821 35.0192 47.6971 34.6553 48.2832L27.6497 60.2206L20.6446 48.2832C20.2807 47.6971 19.735 47.3821 18.7795 47.3821H12.7294C11.5922 47.3821 11.0918 47.8776 11.0918 49.0038V77.6537C11.0918 78.7799 11.5922 79.2754 12.7294 79.2754H19.007C20.144 79.2754 20.6446 78.7799 20.6446 77.6537V63.0133L26.4672 72.6984C26.6945 73.059 27.0129 73.3744 27.6497 73.3744C28.2865 73.3744 28.6049 73.059 28.8325 72.6984L34.6553 63.0133V77.6537C34.6553 78.7799 35.1554 79.2754 36.2929 79.2754H42.5702H40.2734C39.4548 79.2754 38.943 78.8445 38.9108 78.135L38.9111 78.1309C38.9069 78.0344 38.914 77.9316 38.9279 77.8252C38.9481 77.672 38.9851 77.5104 39.0453 77.3384L44.2079 61.705V49.0038C44.2079 47.8776 43.7075 47.3821 42.5702 47.3821Z" fill="#B6313A"/>
<path d="M74.4561 39.2702C74.6359 39.2702 74.737 39.3592 74.737 39.5486V43.1097C74.737 43.31 74.6135 43.4214 74.4897 43.4993C73.9616 43.8108 73.1301 44.0557 71.9276 44.0557C69.5002 44.0557 68.084 42.8094 68.084 40.0048C68.084 37.2224 69.5114 35.965 72.0287 35.965C73.04 35.965 73.8493 36.2321 74.2987 36.4992C74.4673 36.5882 74.5348 36.6772 74.4673 36.8442L74.1864 37.5341C74.119 37.7011 74.0178 37.7568 73.8042 37.6678C73.4561 37.523 72.9164 37.345 72.2309 37.345C70.4442 37.345 69.6799 38.124 69.6799 40.0048C69.6799 41.9078 70.4666 42.6757 72.1074 42.6757C72.5793 42.6757 73.04 42.5756 73.3096 42.453V40.4832H72.0847C71.894 40.4832 71.8038 40.4055 71.8038 40.2275V39.5486C71.8038 39.3703 71.894 39.2702 72.0847 39.2702H74.4561Z" fill="#19171C"/>
<path d="M83.4125 40.0159C83.4125 38.2239 82.7833 37.3226 81.5133 37.3226C80.2323 37.3226 79.6028 38.2239 79.6028 40.0159C79.6028 41.8077 80.2323 42.6979 81.5133 42.6979C82.7833 42.6979 83.4125 41.8077 83.4125 40.0159ZM85.0195 40.0159C85.0195 42.7201 83.7158 44.0557 81.5021 44.0557C79.3107 44.0557 78.0068 42.7201 78.0068 40.0159C78.0068 37.3115 79.3107 35.965 81.5133 35.965C83.7158 35.965 85.0195 37.3115 85.0195 40.0159Z" fill="#19171C"/>
<path d="M90.346 43.9326C90.1548 43.9326 90.0651 43.8547 89.9976 43.6656L87.5027 36.4096C87.4352 36.2203 87.5254 36.0979 87.7161 36.0979H88.8063C88.9976 36.0979 89.0875 36.187 89.1323 36.3426L90.4807 40.4938L90.9753 42.3302H90.998L91.4811 40.4938L92.8297 36.3426C92.8746 36.187 92.9645 36.0979 93.1555 36.0979H94.2571C94.4367 36.0979 94.5266 36.2203 94.4591 36.4096L91.9756 43.6656C91.9081 43.8547 91.807 43.9326 91.616 43.9326H90.346Z" fill="#19171C"/>
<path d="M99.1788 40.5828V42.5973H102.37C102.561 42.5973 102.651 42.6752 102.651 42.8644V43.6545C102.651 43.8549 102.561 43.9326 102.37 43.9326H97.9088C97.7066 43.9326 97.6279 43.8549 97.6279 43.6545V36.365C97.6279 36.1759 97.7066 36.0979 97.8979 36.0979H102.325C102.517 36.0979 102.606 36.1759 102.606 36.365V37.1554C102.606 37.3445 102.517 37.4335 102.325 37.4335H99.1788V39.2921H102.179C102.359 39.2921 102.449 39.392 102.449 39.5703V40.3047C102.449 40.4827 102.359 40.5828 102.179 40.5828H99.1788Z" fill="#19171C"/>
<path d="M108.765 40.0272C110.046 40.0272 110.506 39.6157 110.506 38.7363C110.506 37.7903 110.012 37.4343 108.776 37.4343H107.562V40.0272H108.765ZM108.798 36.0987C110.978 36.0987 112.08 36.8666 112.08 38.7363C112.08 40.0938 111.338 40.8509 110.147 41.1068L112.057 43.5886C112.181 43.7442 112.114 43.9336 111.889 43.9336H110.821C110.619 43.9336 110.529 43.8446 110.428 43.7109L108.607 41.3182H107.562V43.6552C107.562 43.8557 107.472 43.9336 107.281 43.9336H106.281C106.079 43.9336 106 43.8557 106 43.6552V36.366C106 36.1766 106.079 36.0987 106.281 36.0987H108.798Z" fill="#19171C"/>
<path d="M121.778 43.6552C121.778 43.8557 121.688 43.9336 121.509 43.9336H120.497C120.306 43.9336 120.227 43.8779 120.149 43.7442L116.991 38.703V43.6552C116.991 43.8557 116.912 43.9336 116.721 43.9336H115.755C115.553 43.9336 115.474 43.8557 115.474 43.6552V36.366C115.474 36.1766 115.553 36.0987 115.755 36.0987H116.744C116.946 36.0987 117.025 36.1433 117.103 36.2767L120.261 41.3293V36.366C120.261 36.1766 120.34 36.0987 120.531 36.0987H121.509C121.688 36.0987 121.778 36.1766 121.778 36.3547V43.6552Z" fill="#19171C"/>
<path d="M130.567 40.0159C130.567 38.2239 129.937 37.3226 128.667 37.3226C127.386 37.3226 126.757 38.2239 126.757 40.0159C126.757 41.8077 127.386 42.6979 128.667 42.6979C129.937 42.6979 130.567 41.8077 130.567 40.0159ZM132.174 40.0159C132.174 42.7201 130.87 44.0557 128.656 44.0557C126.465 44.0557 125.161 42.7201 125.161 40.0159C125.161 37.3115 126.465 35.965 128.667 35.965C130.87 35.965 132.174 37.3115 132.174 40.0159Z" fill="#19171C"/>
<path d="M142.433 37.4779V42.5529H143.253C144.781 42.5529 145.624 42.0296 145.624 39.9375C145.624 37.9898 144.781 37.4779 143.242 37.4779H142.433ZM141.14 43.9326C140.938 43.9326 140.859 43.8547 140.859 43.6545V36.365C140.859 36.1759 140.938 36.0979 141.129 36.0979H143.298C145.838 36.0979 147.22 37.1329 147.22 39.9375C147.22 42.8865 145.838 43.9326 143.309 43.9326H141.14Z" fill="#19171C"/>
<path d="M155.266 40.0042C155.266 38.2124 154.716 37.3111 153.592 37.3111C152.479 37.3111 151.929 38.2124 151.929 40.0042C151.929 41.8071 152.479 42.7086 153.592 42.7086C154.716 42.7086 155.266 41.8071 155.266 40.0042ZM156.828 40.0042C156.828 42.6753 155.592 44.0439 153.592 44.0439C151.592 44.0439 150.355 42.6753 150.355 40.0153C150.355 37.333 151.592 35.9644 153.592 35.9644C155.592 35.9644 156.828 37.333 156.828 40.0042Z" fill="#19171C"/>
<path d="M172.851 42.7922C171.323 42.7922 170.471 43.7601 170.471 45.348C170.471 46.1419 170.721 46.3405 171.272 46.3405H172.325C172.776 46.3405 172.976 46.2165 173.052 45.8194L173.076 45.6705C173.127 45.3974 173.352 45.2983 173.703 45.2983C174.029 45.2983 174.43 45.3731 174.856 45.5465L176.209 46.0674C176.734 46.2659 177.361 46.415 178.238 46.415C179.691 46.415 180.543 45.5962 180.543 44.0081C180.543 43.2139 180.293 42.8667 179.742 42.8667H178.689C178.238 42.8667 178.038 42.9907 177.963 43.3876L177.937 43.5369C177.887 43.7849 177.637 43.9089 177.286 43.9089C176.96 43.9089 176.534 43.8095 176.158 43.6609L174.805 43.1396C174.279 42.9412 173.653 42.7922 172.851 42.7922Z" fill="#0EACBF"/>
<path d="M48.459 86.5404C48.459 86.4593 48.5036 86.4229 48.5776 86.4229H51.9571C52.0463 86.4229 52.0836 86.4593 52.0836 86.5404V86.8861C52.0836 86.9669 52.0463 87.0111 51.9571 87.0111H50.5907V91.461C50.5907 91.5493 50.5534 91.5859 50.4645 91.5859H50.0783C49.9965 91.5859 49.9519 91.5493 49.9519 91.461V87.0111H48.5852C48.5036 87.0111 48.459 86.9669 48.459 86.8861V86.5404Z" fill="#19171C"/>
<path d="M55.9243 89.1515C57.0311 89.1515 57.4172 88.813 57.4172 88.0849C57.4172 87.3201 56.9938 87.0038 55.9389 87.0038H54.9513V89.1515H55.9243ZM55.954 86.4227C57.4023 86.4227 58.0635 86.9597 58.0635 88.0849C58.0635 89.0559 57.4988 89.556 56.5555 89.6663L58.0706 91.4243C58.1227 91.4976 58.1081 91.5859 57.9965 91.5859H57.5436C57.4469 91.5859 57.4096 91.5493 57.3578 91.4904L55.8575 89.7326H54.9513V91.461C54.9513 91.5493 54.9067 91.5859 54.8251 91.5859H54.4387C54.3495 91.5859 54.3125 91.5493 54.3125 91.461V86.5404C54.3125 86.4596 54.3495 86.4227 54.4387 86.4227H55.954Z" fill="#19171C"/>
<path d="M63.1071 89.6735L62.1787 87.055H62.1638L61.2278 89.6735H63.1071ZM62.4165 86.4227C62.5278 86.4227 62.55 86.4668 62.5799 86.5474L64.4439 91.4607C64.4663 91.5271 64.4293 91.5859 64.3474 91.5859H63.9167C63.8348 91.5859 63.8053 91.549 63.7756 91.4757L63.3076 90.2472H61.0273L60.5596 91.4757C60.5299 91.549 60.5075 91.5859 60.4258 91.5859H59.9876C59.906 91.5859 59.8689 91.5271 59.8911 91.4607L61.7555 86.5474C61.785 86.4668 61.8074 86.4227 61.9187 86.4227H62.4165Z" fill="#19171C"/>
<path d="M68.6123 91.0048C69.7115 91.0048 70.0976 90.784 70.0976 90.0853C70.0976 89.4528 69.7634 89.1954 68.679 89.1954H67.2828V91.0048H68.6123ZM68.6495 88.6364C69.5926 88.6364 69.912 88.3937 69.912 87.798C69.912 87.2241 69.5629 86.9961 68.6123 86.9961H67.2828V88.6364H68.6495ZM66.7776 91.5859C66.6884 91.5859 66.6514 91.549 66.6514 91.4607V86.5401C66.6514 86.4593 66.6884 86.4227 66.7776 86.4227H68.6269C69.949 86.4227 70.5434 86.8637 70.5434 87.7539C70.5434 88.46 70.1795 88.7688 69.7858 88.8644C70.2981 88.9749 70.7291 89.3278 70.7291 90.1223C70.7291 91.1592 70.0679 91.5859 68.6569 91.5859H66.7776Z" fill="#19171C"/>
<path d="M75.9216 89.6735L74.9931 87.055H74.9783L74.0423 89.6735H75.9216ZM75.2309 86.4227C75.3422 86.4227 75.3644 86.4668 75.3944 86.5474L77.2583 91.4607C77.2807 91.5271 77.2437 91.5859 77.1619 91.5859H76.7311C76.6493 91.5859 76.6198 91.549 76.5901 91.4757L76.1221 90.2472H73.8418L73.374 91.4757C73.3443 91.549 73.3219 91.5859 73.2403 91.5859H72.802C72.7204 91.5859 72.6834 91.5271 72.7055 91.4607L74.5697 86.5474C74.5995 86.4668 74.6219 86.4227 74.7332 86.4227H75.2309Z" fill="#19171C"/>
<path d="M80.1036 90.9975H82.3542C82.4358 90.9975 82.4804 91.0344 82.4804 91.1078V91.4607C82.4804 91.5493 82.4358 91.5859 82.3542 91.5859H79.591C79.5019 91.5859 79.4648 91.5493 79.4648 91.4607V86.5404C79.4648 86.4593 79.5019 86.4227 79.591 86.4227H79.9774C80.059 86.4227 80.1036 86.4593 80.1036 86.5404V90.9975Z" fill="#19171C"/>
<path d="M88.104 89.2398H85.4376V91.461C85.4376 91.5493 85.393 91.5859 85.3112 91.5859H84.925C84.8359 91.5859 84.7988 91.5493 84.7988 91.461V86.5406C84.7988 86.4596 84.8359 86.4227 84.925 86.4227H85.3112C85.393 86.4227 85.4376 86.4596 85.4376 86.5406V88.6513H88.104V86.5406C88.104 86.4596 88.1486 86.4227 88.2302 86.4227H88.6239C88.7058 86.4227 88.7428 86.4596 88.7428 86.5406V91.461C88.7428 91.5493 88.7058 91.5859 88.6239 91.5859H88.2302C88.1486 91.5859 88.104 91.5493 88.104 91.461V89.2398Z" fill="#19171C"/>
<path d="M94.1657 89.6735L93.2373 87.055H93.2224L92.2864 89.6735H94.1657ZM93.4751 86.4227C93.5864 86.4227 93.6086 86.4668 93.6385 86.5474L95.5025 91.4607C95.5249 91.5271 95.4878 91.5859 95.406 91.5859H94.9753C94.8934 91.5859 94.8639 91.549 94.8342 91.4757L94.3662 90.2472H92.0859L91.6182 91.4757C91.5885 91.549 91.566 91.5859 91.4844 91.5859H91.0462C90.9645 91.5859 90.9275 91.5271 90.9497 91.4607L92.8139 86.5474C92.8436 86.4668 92.866 86.4227 92.9773 86.4227H93.4751Z" fill="#19171C"/>
<path d="M101.661 91.461C101.661 91.5493 101.617 91.5859 101.535 91.5859H101.126C101.037 91.5859 101 91.5567 100.955 91.4904L98.3339 87.4745V91.461C98.3339 91.5493 98.2966 91.5859 98.215 91.5859H97.8362C97.747 91.5859 97.71 91.5493 97.71 91.461V86.5404C97.71 86.4596 97.747 86.4227 97.8362 86.4227H98.2372C98.3263 86.4227 98.3709 86.4449 98.4155 86.511L101.037 90.5343V86.5404C101.037 86.4596 101.074 86.4227 101.156 86.4227H101.535C101.617 86.4227 101.661 86.4596 101.661 86.5331V91.461Z" fill="#19171C"/>
<path d="M104.96 87.0111V90.9975H105.725C106.951 90.9975 107.671 90.5857 107.671 88.916C107.671 87.4154 106.943 87.0111 105.71 87.0111H104.96ZM104.447 91.5859C104.358 91.5859 104.321 91.5493 104.321 91.461V86.5404C104.321 86.4593 104.358 86.4227 104.44 86.4227H105.718C107.367 86.4227 108.325 87.0552 108.325 88.916C108.325 90.9534 107.367 91.5859 105.733 91.5859H104.447Z" fill="#19171C"/>
<path d="M114.319 89.004C114.319 87.6655 113.799 86.9152 112.73 86.9152C111.66 86.9152 111.14 87.6655 111.14 89.004C111.14 90.3424 111.66 91.0855 112.73 91.0855C113.799 91.0855 114.319 90.3424 114.319 89.004ZM114.973 89.004C114.973 90.7103 114.178 91.6592 112.722 91.6592C111.281 91.6592 110.486 90.7103 110.486 89.004C110.486 87.2976 111.281 86.3415 112.73 86.3415C114.178 86.3415 114.973 87.2976 114.973 89.004Z" fill="#19171C"/>
<path d="M122.513 89.4234C123.575 89.4234 124.036 89.1071 124.036 88.2171C124.036 87.3271 123.575 87.0036 122.513 87.0036H121.592V89.4234H122.513ZM121.079 91.5859C120.99 91.5859 120.953 91.5418 120.953 91.4607V86.5474C120.953 86.4666 120.99 86.4227 121.072 86.4227H122.513C123.998 86.4227 124.689 86.9375 124.689 88.2171C124.689 89.4969 123.998 90.0045 122.513 90.0045H121.592V91.4607C121.592 91.5418 121.547 91.5859 121.466 91.5859H121.079Z" fill="#19171C"/>
<path d="M129.555 89.6735L128.627 87.055H128.612L127.676 89.6735H129.555ZM128.865 86.4227C128.976 86.4227 128.998 86.4668 129.028 86.5474L130.892 91.4607C130.915 91.5271 130.878 91.5859 130.796 91.5859H130.365C130.283 91.5859 130.254 91.549 130.224 91.4757L129.756 90.2472H127.476L127.008 91.4757C126.978 91.549 126.956 91.5859 126.874 91.5859H126.436C126.354 91.5859 126.317 91.5271 126.339 91.4607L128.204 86.5474C128.233 86.4668 128.256 86.4227 128.367 86.4227H128.865Z" fill="#19171C"/>
<path d="M134.711 89.1515C135.818 89.1515 136.204 88.813 136.204 88.0849C136.204 87.3201 135.781 87.0038 134.726 87.0038H133.738V89.1515H134.711ZM134.741 86.4227C136.189 86.4227 136.851 86.9597 136.851 88.0849C136.851 89.0559 136.286 89.556 135.343 89.6663L136.858 91.4243C136.91 91.4976 136.895 91.5859 136.784 91.5859H136.331C136.234 91.5859 136.197 91.5493 136.145 91.4904L134.645 89.7326H133.738V91.461C133.738 91.5493 133.694 91.5859 133.612 91.5859H133.226C133.137 91.5859 133.1 91.5493 133.1 91.461V86.5404C133.1 86.4596 133.137 86.4227 133.226 86.4227H134.741Z" fill="#19171C"/>
<path d="M141.894 89.6735L140.966 87.055H140.951L140.015 89.6735H141.894ZM141.203 86.4227C141.315 86.4227 141.337 86.4668 141.367 86.5474L143.231 91.4607C143.254 91.5271 143.216 91.5859 143.135 91.5859H142.704C142.622 91.5859 142.593 91.549 142.563 91.4757L142.095 90.2472H139.815L139.347 91.4757C139.317 91.549 139.294 91.5859 139.213 91.5859H138.775C138.693 91.5859 138.656 91.5271 138.678 91.4607L140.542 86.5474C140.572 86.4668 140.594 86.4227 140.706 86.4227H141.203Z" fill="#19171C"/>
<path d="M148.573 86.5404C148.573 86.4593 148.618 86.4229 148.692 86.4229H152.071C152.161 86.4229 152.198 86.4593 152.198 86.5404V86.8861C152.198 86.9669 152.161 87.0111 152.071 87.0111H150.705V91.461C150.705 91.5493 150.668 91.5859 150.579 91.5859H150.192C150.111 91.5859 150.066 91.5493 150.066 91.461V87.0111H148.699C148.618 87.0111 148.573 86.9669 148.573 86.8861V86.5404Z" fill="#19171C"/>
<path d="M157.776 89.004C157.776 87.6655 157.256 86.9152 156.187 86.9152C155.117 86.9152 154.597 87.6655 154.597 89.004C154.597 90.3424 155.117 91.0855 156.187 91.0855C157.256 91.0855 157.776 90.3424 157.776 89.004ZM158.43 89.004C158.43 90.7103 157.635 91.6592 156.179 91.6592C154.738 91.6592 153.943 90.7103 153.943 89.004C153.943 87.2976 154.738 86.3415 156.187 86.3415C157.635 86.3415 158.43 87.2976 158.43 89.004Z" fill="#19171C"/>
<path d="M161.483 87.0111V90.9975H162.248C163.474 90.9975 164.195 90.5857 164.195 88.916C164.195 87.4154 163.467 87.0111 162.234 87.0111H161.483ZM160.971 91.5859C160.882 91.5859 160.845 91.5493 160.845 91.461V86.5404C160.845 86.4593 160.882 86.4227 160.964 86.4227H162.241C163.89 86.4227 164.848 87.0552 164.848 88.916C164.848 90.9534 163.89 91.5859 162.256 91.5859H160.971Z" fill="#19171C"/>
<path d="M170.843 89.004C170.843 87.6655 170.323 86.9152 169.254 86.9152C168.184 86.9152 167.664 87.6655 167.664 89.004C167.664 90.3424 168.184 91.0855 169.254 91.0855C170.323 91.0855 170.843 90.3424 170.843 89.004ZM171.497 89.004C171.497 90.7103 170.702 91.6592 169.246 91.6592C167.805 91.6592 167.011 90.7103 167.011 89.004C167.011 87.2976 167.805 86.3415 169.254 86.3415C170.702 86.3415 171.497 87.2976 171.497 89.004Z" fill="#19171C"/>
<path d="M175.152 91.6445C174.55 91.6445 173.971 91.5415 173.689 91.4091C173.607 91.3724 173.57 91.343 173.592 91.2694L173.711 90.9384C173.726 90.8723 173.763 90.8207 173.86 90.8648C174.135 90.9753 174.595 91.0781 175.13 91.0781C175.932 91.0781 176.452 90.7987 176.452 90.2544C176.452 89.666 175.858 89.4528 175.189 89.1879C174.409 88.8791 173.711 88.5994 173.711 87.6803C173.711 86.8564 174.253 86.3413 175.501 86.3413C176.073 86.3413 176.504 86.4369 176.786 86.5548C176.86 86.584 176.897 86.6209 176.875 86.6945L176.756 87.018C176.734 87.0844 176.705 87.1211 176.6 87.0844C176.341 86.9814 176.021 86.9153 175.546 86.9153C174.692 86.9153 174.35 87.1799 174.35 87.6803C174.35 88.2537 174.892 88.4081 175.516 88.673C176.318 89.0113 177.091 89.3128 177.091 90.2692C177.091 91.1811 176.333 91.6445 175.152 91.6445Z" fill="#19171C"/>
<mask id="mask0_28_5375" style="mask-type:luminance" maskUnits="userSpaceOnUse" x="184" y="46" width="30" height="34">
<path d="M184.356 57.3018L184.814 58.6882L190.973 77.3378C191.067 77.6077 191.111 77.856 191.109 78.0784C193.237 79.1078 195.762 79.5898 198.597 79.5898C207.559 79.5898 213.427 74.7703 213.427 63.1029C213.427 51.4357 207.559 46.6157 198.597 46.6157C191.299 46.6157 186.052 49.8121 184.356 57.3018ZM193.821 63.1029C193.821 57.2016 195.459 54.9946 198.597 54.9946C201.736 54.9946 203.373 57.2016 203.373 63.1029C203.373 69.0042 201.736 71.2116 198.597 71.2116C195.459 71.2116 193.821 69.0042 193.821 63.1029Z" fill="white"/>
</mask>
<g mask="url(#mask0_28_5375)">
<path d="M184.356 79.5896H213.427V46.6152H184.356V79.5896Z" fill="#F79131"/>
</g>
<mask id="mask1_28_5375" style="mask-type:luminance" maskUnits="userSpaceOnUse" x="-10" y="33" width="244" height="66">
<path d="M-9.89062 33.0889H233.73V98.5889H-9.89062V33.0889Z" fill="white"/>
</mask>
<g mask="url(#mask1_28_5375)">
<path d="M164 47.3809H157.358C156.221 47.3809 155.721 47.8764 155.721 49.0026V58.7779H148.442V49.0026C148.442 47.8764 147.942 47.3809 146.805 47.3809H140.163C140.091 47.3809 140.021 47.3828 139.954 47.3871C140.943 47.4465 141.382 47.948 141.382 49.0026V77.6525C141.382 78.707 140.943 79.2085 139.954 79.2681C140.021 79.272 140.091 79.2742 140.163 79.2742H146.805C147.942 79.2742 148.442 78.7786 148.442 77.6525V67.427H155.721V77.6525C155.721 78.7786 156.221 79.2742 157.358 79.2742H164H161.268C160.176 79.2742 159.63 78.5082 160.04 77.3372L165.637 60.3868V49.0026C165.637 47.8764 165.137 47.3809 164 47.3809Z" fill="#4AB85B"/>
<path d="M107.992 47.3813H99.8045C98.6217 47.3813 98.1667 47.8766 97.8482 48.8228L90.1194 72.2279L92.1563 75.556L92.1575 75.5577L93.1914 77.2472C93.8738 78.3285 93.419 79.2744 92.2815 79.2744H89.6602H96.0342H96.5746H111.979H118.136H115.544C114.407 79.2744 113.907 78.7791 113.907 77.6527V60.8094L109.948 48.8228C109.63 47.8766 109.175 47.3813 107.992 47.3813Z" fill="#184B89"/>
<path d="M111.796 62.4945H106.036L104.388 57.3746C104.253 56.9537 103.653 56.9493 103.511 57.3686L101.78 62.4945H96.0001C95.5548 62.4945 95.368 63.0578 95.7266 63.3191L100.361 66.6981L98.5577 72.0382C98.4154 72.4599 98.9039 72.8143 99.2669 72.5523L103.853 69.2445L108.4 72.5591C108.76 72.8218 109.248 72.4744 109.113 72.0527L107.388 66.6954L112.068 63.3208C112.429 63.0602 112.243 62.4945 111.796 62.4945Z" fill="white"/>
<path d="M79.7715 47.3811H78.6813L78.6799 47.3835H76.3599V47.3811H68.1718C67.0346 47.3811 66.5342 47.8766 66.5342 49.0028V66.9124L69.9768 77.3374C70.3861 78.5084 69.8404 79.2744 68.7487 79.2744H68.1718H74.7223C75.8595 79.2744 76.3599 78.7789 76.3599 77.6527V69.8171V69.8144H78.6799L78.6813 69.8171H78.6818L83.3652 77.9678C83.8656 78.824 84.5024 79.2744 85.6396 79.2744H89.6596C88.8408 79.2744 88.3292 78.8435 88.297 78.134C88.2863 77.8976 88.3292 77.6303 88.4313 77.3374L90.1188 72.2277L87.8415 68.5066C87.8415 68.5066 92.4301 66.6212 93.2823 61.5175C93.4311 60.6266 93.5393 59.6587 93.5505 58.5991C93.5393 57.5395 93.4399 56.5697 93.2823 55.6804C92.3896 50.6407 87.8415 48.6913 87.8415 48.6913C85.6942 47.7729 82.9829 47.3811 79.7715 47.3811ZM76.3599 62.1566V61.7086V59.6029V55.4896V55.0416H79.6351C82.5008 55.0416 83.638 56.1229 83.638 58.3752C83.638 58.4534 83.6337 58.5243 83.6317 58.5991C83.6337 58.6741 83.638 58.7448 83.638 58.823C83.638 59.6249 83.4931 60.2772 83.1781 60.7863L83.1764 60.7831C82.7859 61.415 82.1339 61.8258 81.1675 62.0217L81.1524 62.0249C80.9792 62.0594 80.796 62.0874 80.6023 62.1083L80.5835 62.11C80.5 62.119 80.4142 62.1262 80.327 62.1325C80.3007 62.1344 80.2741 62.1358 80.2476 62.1375C80.176 62.1421 80.1026 62.1455 80.0281 62.1484C79.9996 62.1496 79.9713 62.1508 79.9428 62.1518C79.8422 62.1544 79.7401 62.1566 79.6351 62.1566H76.3599Z" fill="#0F6998"/>
<path d="M90.1193 72.2279L88.432 77.3376C88.3297 77.6303 88.2868 77.8978 88.2975 78.1343C88.3297 78.8438 88.8413 79.2744 89.6601 79.2744H92.2817C93.4186 79.2744 93.8737 78.3285 93.1913 77.2472L92.1572 75.5579L92.1562 75.556L90.1193 72.2279Z" fill="#233A6F"/>
<path d="M179.6 47.3811H171.413C170.23 47.3811 169.775 47.8766 169.456 48.8228L165.638 60.387V77.6527C165.638 78.7789 165.137 79.2744 164 79.2744H168.183C169.32 79.2744 169.911 78.7789 170.184 77.7876L175.461 57.0211H175.589H175.598L178.207 67.3821L180.829 77.7876C180.88 77.9736 180.942 78.142 181.017 78.293C181.343 78.9473 181.906 79.2744 182.83 79.2744H189.745C190.563 79.2744 191.075 78.8435 191.107 78.134C191.108 78.1157 191.108 78.0971 191.109 78.0783C186.511 75.8544 183.768 71.0783 183.768 63.1028C183.768 60.9378 183.97 59.008 184.356 57.3016L181.557 48.8228C181.551 48.8052 181.545 48.7893 181.539 48.7722C181.485 48.6194 181.428 48.4778 181.364 48.3495L181.359 48.3384C181.042 47.7082 180.561 47.3811 179.6 47.3811Z" fill="#FDBB30"/>
<path d="M184.356 57.3014C183.97 59.0078 183.768 60.9376 183.768 63.1026C183.768 71.0781 186.51 75.8542 191.108 78.0781C191.11 77.8556 191.067 77.6071 190.972 77.3374L184.814 58.6879L184.356 57.3014Z" fill="#F47E32"/>
<path d="M165.637 60.387L160.039 77.3374C159.63 78.5084 160.176 79.2744 161.267 79.2744H163.999C165.136 79.2744 165.637 78.7789 165.637 77.6527V60.387Z" fill="#5B9550"/>
<path d="M139.744 47.3811H133.467C132.33 47.3811 131.829 47.8766 131.829 49.0028V62.7872L123.823 48.3722C123.414 47.6515 123.004 47.3811 121.867 47.3811H115.544C114.407 47.3811 113.906 47.8766 113.906 49.0028V60.8094L119.364 77.3374C119.774 78.5084 119.228 79.2744 118.136 79.2744H121.821C122.958 79.2744 123.459 78.7789 123.459 77.6527V63.8683L131.465 78.2833C131.874 79.004 132.284 79.2744 133.421 79.2744H139.744C139.817 79.2744 139.886 79.2722 139.954 79.2684C138.964 79.2088 138.525 78.7072 138.525 77.6527V49.0028C138.525 47.9483 138.964 47.4467 139.954 47.3874C139.886 47.383 139.817 47.3811 139.744 47.3811Z" fill="#13A555"/>
<path d="M139.954 47.3866C138.964 47.4462 138.525 47.9477 138.525 49.0022V77.6519C138.525 78.7067 138.964 79.208 139.954 79.2676C140.943 79.208 141.382 78.7067 141.382 77.6519V49.0022C141.382 47.9477 140.943 47.4462 139.954 47.3866Z" fill="#15A156"/>
<path d="M113.906 60.8094V77.6527C113.906 78.7789 114.407 79.2744 115.544 79.2744H118.136C119.228 79.2744 119.774 78.5084 119.364 77.3374L113.906 60.8094Z" fill="#1E3830"/>
<path d="M58.6049 47.3809H50.4171C49.456 47.3809 48.9756 47.708 48.6581 48.3381L48.653 48.3492C48.5892 48.4776 48.5322 48.6192 48.4791 48.7719C48.473 48.789 48.4667 48.805 48.4608 48.8226L45.2031 58.6879L44.2072 61.7038V77.6525C44.2072 78.7786 43.7068 79.2742 42.5696 79.2742H47.1872C48.1112 79.2742 48.6747 78.947 49.0002 78.2928L49.0075 78.2763C49.0791 78.1294 49.1393 77.9668 49.1887 77.7873L54.42 57.0208H54.4281H54.5564L59.8333 77.7873C60.1061 78.7786 60.6976 79.2742 61.8346 79.2742H68.1721C67.0352 79.2742 66.5345 78.7786 66.5345 77.6525V68.1951V66.9122L60.561 48.8226C60.2425 47.8764 59.7877 47.3809 58.6049 47.3809Z" fill="#DE2730"/>
<path d="M44.2072 61.7042L39.0446 77.3376C38.9844 77.5094 38.9474 77.6711 38.9272 77.8245C38.9131 77.9306 38.9062 78.0337 38.9104 78.1302V78.1343C38.9423 78.8438 39.4539 79.2744 40.2729 79.2744H42.5696C43.7068 79.2744 44.2072 78.7791 44.2072 77.653V61.7042Z" fill="#A62B34"/>
<path d="M66.5342 66.9124V68.1954V77.6527C66.5342 78.7789 67.0346 79.2744 68.1718 79.2744H68.7487C69.8404 79.2744 70.3863 78.5084 69.9768 77.3374L66.5342 66.9124Z" fill="#27282E"/>
</g>
</svg>
