<svg width="224" height="128" viewBox="0 0 224 128" fill="none" xmlns="http://www.w3.org/2000/svg">
<path d="M126.081 64.3333H127.796C129.695 64.3333 130.644 63.5109 130.644 61.8676C130.644 60.2243 129.695 59.4018 127.796 59.4018H126.081V64.3333ZM126.081 75.0357H120.912V55.2576H129.141C131.374 55.2576 133.084 55.8344 134.271 56.9879C135.458 58.143 136.051 59.7696 136.051 61.8676C136.051 63.9656 135.458 65.5921 134.271 66.7456C133.084 67.9007 131.374 68.4775 129.141 68.4775H126.081V75.0357Z" fill="#100F0D"/>
<path d="M146.653 67.6901L144.332 61.1069L142.012 67.6901H146.653ZM148.025 71.5986H140.64L139.453 75.0357H133.941L141.51 55.2576H147.155L154.724 75.0357H149.212L148.025 71.5986Z" fill="#100F0D"/>
<path d="M159.761 55.2577V66.0117C159.761 66.5885 159.783 67.1786 159.827 67.7821C159.871 68.3855 160.003 68.9322 160.223 69.422C160.442 69.9118 160.79 70.3097 161.265 70.6156C161.739 70.9215 162.407 71.0738 163.269 71.0738C164.13 71.0738 164.794 70.9215 165.26 70.6156C165.726 70.3097 166.073 69.9118 166.302 69.422C166.53 68.9322 166.667 68.3855 166.711 67.7821C166.755 67.1786 166.777 66.5885 166.777 66.0117V55.2577H171.92V66.7205C171.92 69.7981 171.212 72.045 169.797 73.4609C168.381 74.8785 166.205 75.5857 163.269 75.5857C160.332 75.5857 158.152 74.8785 156.728 73.4609C155.304 72.045 154.592 69.7981 154.592 66.7205V55.2577H159.761Z" fill="#100F0D"/>
<path d="M179.436 55.2576V70.6809H185.635V75.0357H174.267V55.2576H179.436Z" fill="#100F0D"/>
<path d="M191.383 65.1458C191.383 65.9332 191.533 66.6587 191.832 67.324C192.131 67.9877 192.535 68.5661 193.046 69.0543C193.555 69.5441 194.148 69.9253 194.826 70.1961C195.503 70.4669 196.219 70.6023 196.975 70.6023C197.73 70.6023 198.448 70.4669 199.125 70.1961C199.801 69.9253 200.399 69.5441 200.919 69.0543C201.436 68.5661 201.845 67.9877 202.144 67.324C202.443 66.6587 202.593 65.9332 202.593 65.1458C202.593 64.3601 202.443 63.6346 202.144 62.9692C201.845 62.3039 201.436 61.7271 200.919 61.2373C200.399 60.7475 199.801 60.3681 199.125 60.0973C198.448 59.8264 197.73 59.6894 196.975 59.6894C196.219 59.6894 195.503 59.8264 194.826 60.0973C194.148 60.3681 193.555 60.7475 193.046 61.2373C192.535 61.7271 192.131 62.3039 191.832 62.9692C191.533 63.6346 191.383 64.3601 191.383 65.1458ZM185.978 65.1458C185.978 63.6781 186.25 62.3089 186.795 61.0418C187.339 59.773 188.096 58.6663 189.062 57.7234C190.03 56.7789 191.187 56.04 192.531 55.5067C193.876 54.9734 195.357 54.706 196.975 54.706C198.576 54.706 200.051 54.9734 201.406 55.5067C202.759 56.04 203.926 56.7789 204.901 57.7234C205.877 58.6663 206.637 59.773 207.181 61.0418C207.726 62.3089 208 63.6781 208 65.1458C208 66.6153 207.726 67.9844 207.181 69.2516C206.637 70.5188 205.877 71.6254 204.901 72.5699C203.926 73.5145 202.759 74.2533 201.406 74.7865C200.051 75.3198 198.576 75.5857 196.975 75.5857C195.357 75.5857 193.876 75.3198 192.531 74.7865C191.187 74.2533 190.03 73.5145 189.062 72.5699C188.096 71.6254 187.339 70.5188 186.795 69.2516C186.25 67.9844 185.978 66.6153 185.978 65.1458Z" fill="#100F0D"/>
<path d="M132.01 35.3844C131.447 34.9297 130.885 34.5937 130.322 34.3747C129.76 34.1557 129.215 34.0471 128.687 34.0471C128.019 34.0471 127.474 34.2043 127.052 34.5185C126.63 34.8328 126.419 35.244 126.419 35.7522C126.419 36.1016 126.524 36.3892 126.736 36.6165C126.946 36.8439 127.223 37.0411 127.566 37.2066C127.909 37.3738 128.296 37.5176 128.727 37.6397C129.157 37.7634 129.584 37.8937 130.006 38.0341C131.694 38.5941 132.929 39.3414 133.711 40.2759C134.494 41.2121 134.885 42.4324 134.885 43.9352C134.885 44.95 134.714 45.8678 134.371 46.6903C134.028 47.5128 133.527 48.2165 132.868 48.8016C132.208 49.3884 131.399 49.8415 130.441 50.1658C129.483 50.4884 128.397 50.6506 127.184 50.6506C124.669 50.6506 122.34 49.9084 120.195 48.4205L122.41 44.2764C123.184 44.9584 123.949 45.4666 124.705 45.7976C125.46 46.1303 126.208 46.2958 126.946 46.2958C127.79 46.2958 128.419 46.1035 128.832 45.719C129.245 45.3345 129.452 44.8982 129.452 44.4084C129.452 44.1109 129.399 43.8533 129.294 43.6343C129.188 43.4153 129.012 43.2148 128.766 43.031C128.52 42.8471 128.199 42.6765 127.804 42.5194C127.408 42.3622 126.929 42.1867 126.366 41.9945C125.698 41.7855 125.043 41.5531 124.401 41.299C123.759 41.0466 123.188 40.7089 122.687 40.2893C122.186 39.8697 121.781 39.3414 121.474 38.7028C121.166 38.0642 121.012 37.2552 121.012 36.2755C121.012 35.2976 121.175 34.4099 121.5 33.6141C121.825 32.8184 122.282 32.1363 122.872 31.568C123.461 30.9996 124.181 30.5583 125.034 30.2423C125.887 29.9281 126.841 29.7709 127.896 29.7709C128.881 29.7709 129.909 29.9062 130.982 30.177C132.054 30.4479 133.083 30.8458 134.068 31.3708L132.01 35.3844Z" fill="#100F0D"/>
<path d="M147.439 42.755L145.118 36.1718L142.797 42.755H147.439ZM139.342 28.2495C139.342 26.9556 139.641 25.9275 140.239 25.1669C140.837 24.4063 141.601 24.0251 142.534 24.0251C142.903 24.0251 143.316 24.0836 143.773 24.1973C144.23 24.311 144.683 24.433 145.131 24.5634C145.58 24.6955 145.993 24.8125 146.371 24.9179C146.749 25.0232 147.052 25.075 147.281 25.075C147.843 25.075 148.221 24.7171 148.415 24H151.026C150.85 25.5731 150.468 26.6748 149.879 27.305C149.29 27.9352 148.494 28.2495 147.492 28.2495C147 28.2495 146.516 28.1926 146.041 28.079C145.567 27.9653 145.118 27.8432 144.696 27.7112C144.274 27.5808 143.896 27.4588 143.562 27.3434C143.228 27.2314 142.946 27.173 142.718 27.173C142.524 27.173 142.358 27.2432 142.217 27.3836C142.076 27.5241 141.944 27.8115 141.821 28.2495H139.342ZM148.811 46.6635H141.426L140.239 50.1005H134.727L142.296 30.3208H147.94L155.51 50.1005H149.997L148.811 46.6635Z" fill="#100F0D"/>
<path d="M159.888 40.2107C159.888 40.9981 160.037 41.7237 160.336 42.3873C160.635 43.0527 161.039 43.6293 161.549 44.1191C162.059 44.6089 162.653 44.9885 163.33 45.261C164.006 45.5318 164.723 45.6672 165.479 45.6672C166.235 45.6672 166.952 45.5318 167.629 45.261C168.305 44.9885 168.903 44.6089 169.422 44.1191C169.941 43.6293 170.35 43.0527 170.649 42.3873C170.947 41.7237 171.097 40.9981 171.097 40.2107C171.097 39.4233 170.947 38.6978 170.649 38.0341C170.35 37.3688 169.941 36.7921 169.422 36.3023C168.903 35.8125 168.305 35.4329 167.629 35.1604C166.952 34.8896 166.235 34.7543 165.479 34.7543C164.723 34.7543 164.006 34.8896 163.33 35.1604C162.653 35.4329 162.059 35.8125 161.549 36.3023C161.039 36.7921 160.635 37.3688 160.336 38.0341C160.037 38.6978 159.888 39.4233 159.888 40.2107ZM154.481 40.2107C154.481 38.7413 154.753 37.3738 155.299 36.105C155.844 34.8378 156.6 33.7311 157.567 32.7866C158.534 31.8438 159.69 31.1048 161.035 30.5699C162.38 30.0383 163.861 29.7709 165.479 29.7709C167.079 29.7709 168.556 30.0383 169.91 30.5699C171.264 31.1048 172.429 31.8438 173.405 32.7866C174.381 33.7311 175.141 34.8378 175.686 36.105C176.231 37.3738 176.504 38.7413 176.504 40.2107C176.504 41.6802 176.231 43.0476 175.686 44.3165C175.141 45.5836 174.381 46.6903 173.405 47.6348C172.429 48.5793 171.264 49.3183 169.91 49.8515C168.556 50.3848 167.079 50.6506 165.479 50.6506C163.861 50.6506 162.38 50.3848 161.035 49.8515C159.69 49.3183 158.534 48.5793 157.567 47.6348C156.6 46.6903 155.844 45.5836 155.299 44.3165C154.753 43.0476 154.481 41.6802 154.481 40.2107Z" fill="#100F0D"/>
<path d="M99.3288 30.3039H71.2192C68.1142 30.3039 65.5974 32.8065 65.5974 35.8958V41.486V52.6697V63.8519V75.0357L88.0851 63.8519H99.3288C105.539 63.8519 110.573 58.8451 110.573 52.6697V41.486C110.573 35.3107 105.539 30.3039 99.3288 30.3039Z" fill="#EE2132"/>
<path d="M48.7316 30.3039H26.2439C20.034 30.3039 15 35.3107 15 41.486C15 47.663 20.034 52.6697 26.2439 52.6697H15V63.8519V75.0357H26.2439H37.4877H48.7316C54.9415 75.0357 59.9754 70.0289 59.9754 63.8519C59.9754 57.6766 54.9415 52.6697 48.7316 52.6697H59.9754V41.486V30.3039H48.7316Z" fill="#100F0D"/>
<path d="M124.684 86.2998H128.952C128.952 86.7277 128.934 87.1155 128.898 87.4649C128.861 87.8143 128.788 88.1403 128.678 88.4395C128.525 88.8608 128.316 89.2336 128.053 89.5579C127.789 89.8822 127.48 90.1531 127.125 90.3704C126.771 90.5877 126.381 90.7532 125.957 90.8686C125.533 90.9822 125.086 91.0391 124.618 91.0391C123.975 91.0391 123.387 90.9354 122.857 90.7281C122.327 90.5225 121.871 90.2316 121.491 89.8572C121.111 89.4827 120.814 89.033 120.602 88.5081C120.39 87.9849 120.284 87.4048 120.284 86.7695C120.284 86.1426 120.388 85.5659 120.597 85.0426C120.806 84.5177 121.102 84.0714 121.486 83.7002C121.87 83.3291 122.332 83.0399 122.874 82.8326C123.415 82.6254 124.018 82.5234 124.684 82.5234C125.547 82.5234 126.304 82.7039 126.956 83.0683C127.607 83.4328 128.122 83.9961 128.503 84.7584L126.462 85.5826C126.271 85.1396 126.024 84.8237 125.721 84.6297C125.417 84.4375 125.072 84.3422 124.684 84.3422C124.362 84.3422 124.07 84.4007 123.806 84.5177C123.543 84.6364 123.318 84.8036 123.132 85.0209C122.945 85.2382 122.799 85.5007 122.693 85.8066C122.587 86.1142 122.534 86.4569 122.534 86.8347C122.534 87.1774 122.579 87.4933 122.671 87.7859C122.762 88.0784 122.899 88.3325 123.082 88.5465C123.265 88.7605 123.492 88.926 123.762 89.0431C124.033 89.1618 124.348 89.2202 124.706 89.2202C124.918 89.2202 125.123 89.1968 125.321 89.15C125.518 89.1049 125.695 89.0297 125.853 88.926C126.01 88.8224 126.14 88.6887 126.242 88.5248C126.345 88.361 126.414 88.1604 126.451 87.9263H124.684V86.2998Z" fill="#100F0D"/>
<path d="M132.661 86.7812C132.661 87.1022 132.723 87.398 132.848 87.6689C132.972 87.9397 133.14 88.1754 133.352 88.3744C133.564 88.575 133.811 88.7304 134.093 88.8408C134.375 88.9511 134.673 89.0062 134.987 89.0062C135.302 89.0062 135.6 88.9511 135.881 88.8408C136.163 88.7304 136.412 88.575 136.628 88.3744C136.843 88.1754 137.013 87.9397 137.138 87.6689C137.262 87.398 137.325 87.1022 137.325 86.7812C137.325 86.4603 137.262 86.1643 137.138 85.8935C137.013 85.6227 136.843 85.387 136.628 85.1864C136.412 84.9874 136.163 84.832 135.881 84.7217C135.6 84.6113 135.302 84.5561 134.987 84.5561C134.673 84.5561 134.375 84.6113 134.093 84.7217C133.811 84.832 133.564 84.9874 133.352 85.1864C133.14 85.387 132.972 85.6227 132.848 85.8935C132.723 86.1643 132.661 86.4603 132.661 86.7812ZM130.412 86.7812C130.412 86.1811 130.525 85.6244 130.752 85.1062C130.978 84.5896 131.293 84.1382 131.696 83.7537C132.098 83.3676 132.579 83.0667 133.139 82.8494C133.698 82.632 134.314 82.5234 134.987 82.5234C135.653 82.5234 136.267 82.632 136.831 82.8494C137.394 83.0667 137.878 83.3676 138.285 83.7537C138.691 84.1382 139.007 84.5896 139.234 85.1062C139.46 85.6244 139.574 86.1811 139.574 86.7812C139.574 87.3797 139.46 87.938 139.234 88.4546C139.007 88.9728 138.691 89.4242 138.285 89.8087C137.878 90.1931 137.394 90.4958 136.831 90.7131C136.267 90.9304 135.653 91.0391 134.987 91.0391C134.314 91.0391 133.698 90.9304 133.139 90.7131C132.579 90.4958 132.098 90.1931 131.696 89.8087C131.293 89.4242 130.978 88.9728 130.752 88.4546C130.525 87.938 130.412 87.3797 130.412 86.7812Z" fill="#100F0D"/>
<path d="M142.448 82.7475L144.445 87.659L146.454 82.7475H148.791L145.301 90.8152H143.59L140.111 82.7475H142.448Z" fill="#100F0D"/>
<path d="M154.88 84.5229H152.324V85.8719H154.738V87.6473H152.324V89.0382H154.88V90.8152H150.173V82.7475H154.88V84.5229Z" fill="#100F0D"/>
<path d="M159.039 86.3534H159.445C159.869 86.3534 160.194 86.2682 160.421 86.096C160.648 85.9255 160.761 85.6797 160.761 85.3587C160.761 85.0378 160.648 84.7904 160.421 84.6198C160.194 84.4493 159.869 84.3624 159.445 84.3624H159.039V86.3534ZM163.768 90.8152H161.09L159.039 87.7125V90.8152H156.888V82.7475H160.235C160.695 82.7475 161.098 82.8127 161.441 82.9448C161.785 83.0769 162.069 83.2574 162.292 83.4864C162.515 83.7138 162.683 83.9779 162.797 84.2771C162.91 84.5764 162.967 84.8974 162.967 85.2401C162.967 85.8536 162.815 86.3517 162.511 86.7329C162.208 87.114 161.76 87.3732 161.167 87.5086L163.768 90.8152Z" fill="#100F0D"/>
<path d="M165.008 90.8152V82.7475H167.158L171.13 87.6791V82.7475H173.27V90.8152H171.13L167.158 85.882V90.8152H165.008Z" fill="#100F0D"/>
<path d="M176.924 86.7812C176.924 87.1022 176.986 87.398 177.11 87.6689C177.234 87.9397 177.403 88.1754 177.615 88.3744C177.827 88.575 178.074 88.7304 178.356 88.8408C178.637 88.9511 178.935 89.0062 179.25 89.0062C179.564 89.0062 179.862 88.9511 180.144 88.8408C180.426 88.7304 180.674 88.575 180.89 88.3744C181.106 88.1754 181.276 87.9397 181.401 87.6689C181.525 87.398 181.587 87.1022 181.587 86.7812C181.587 86.4603 181.525 86.1643 181.401 85.8935C181.276 85.6227 181.106 85.387 180.89 85.1864C180.674 84.9874 180.426 84.832 180.144 84.7217C179.862 84.6113 179.564 84.5561 179.25 84.5561C178.935 84.5561 178.637 84.6113 178.356 84.7217C178.074 84.832 177.827 84.9874 177.615 85.1864C177.403 85.387 177.234 85.6227 177.11 85.8935C176.986 86.1643 176.924 86.4603 176.924 86.7812ZM174.674 86.7812C174.674 86.1811 174.788 85.6244 175.014 85.1062C175.241 84.5896 175.556 84.1382 175.958 83.7537C176.36 83.3676 176.841 83.0667 177.401 82.8494C177.961 82.632 178.577 82.5234 179.25 82.5234C179.915 82.5234 180.53 82.632 181.093 82.8494C181.656 83.0667 182.141 83.3676 182.547 83.7537C182.953 84.1382 183.27 84.5896 183.497 85.1062C183.722 85.6244 183.836 86.1811 183.836 86.7812C183.836 87.3797 183.722 87.938 183.497 88.4546C183.27 88.9728 182.953 89.4242 182.547 89.8087C182.141 90.1931 181.656 90.4958 181.093 90.7131C180.53 90.9304 179.915 91.0391 179.25 91.0391C178.577 91.0391 177.961 90.9304 177.401 90.7131C176.841 90.4958 176.36 90.1931 175.958 89.8087C175.556 89.4242 175.241 88.9728 175.014 88.4546C174.788 87.938 174.674 87.3797 174.674 86.7812Z" fill="#100F0D"/>
<path d="M123.221 100.999H123.715C124.088 100.999 124.421 100.942 124.713 100.829C125.006 100.715 125.253 100.558 125.454 100.357C125.655 100.158 125.808 99.9208 125.915 99.6467C126.021 99.3725 126.074 99.07 126.074 98.7423C126.074 98.4214 126.019 98.1221 125.909 97.8429C125.799 97.5654 125.644 97.3264 125.443 97.1274C125.241 96.9268 124.995 96.7697 124.702 96.656C124.409 96.5423 124.08 96.4855 123.715 96.4855H123.221V100.999ZM121.07 94.7085H124.252C124.816 94.7085 125.344 94.8204 125.838 95.0411C126.332 95.2618 126.763 95.556 127.133 95.9238C127.502 96.2899 127.793 96.7179 128.005 97.2077C128.217 97.6958 128.323 98.2074 128.323 98.7423C128.323 99.2706 128.219 99.7788 128.01 100.267C127.802 100.755 127.513 101.186 127.144 101.556C126.774 101.927 126.343 102.223 125.849 102.443C125.355 102.666 124.823 102.776 124.252 102.776H121.07V94.7085Z" fill="#100F0D"/>
<path d="M131.626 98.7422C131.626 99.0631 131.688 99.359 131.812 99.6298C131.936 99.9006 132.104 100.136 132.317 100.337C132.529 100.536 132.776 100.691 133.057 100.802C133.339 100.912 133.637 100.967 133.952 100.967C134.266 100.967 134.564 100.912 134.846 100.802C135.127 100.691 135.376 100.536 135.592 100.337C135.808 100.136 135.978 99.9006 136.102 99.6298C136.227 99.359 136.289 99.0631 136.289 98.7422C136.289 98.4212 136.227 98.1253 136.102 97.8545C135.978 97.5836 135.808 97.3479 135.592 97.1473C135.376 96.9484 135.127 96.793 134.846 96.6826C134.564 96.5723 134.266 96.5171 133.952 96.5171C133.637 96.5171 133.339 96.5723 133.057 96.6826C132.776 96.793 132.529 96.9484 132.317 97.1473C132.104 97.3479 131.936 97.5836 131.812 97.8545C131.688 98.1253 131.626 98.4212 131.626 98.7422ZM129.376 98.7422C129.376 98.1437 129.49 97.5853 129.716 97.0687C129.943 96.5505 130.258 96.0992 130.66 95.7147C131.062 95.3285 131.543 95.0276 132.103 94.8103C132.662 94.593 133.279 94.4843 133.952 94.4843C134.617 94.4843 135.232 94.593 135.795 94.8103C136.358 95.0276 136.843 95.3285 137.249 95.7147C137.655 96.0992 137.971 96.5505 138.198 97.0687C138.425 97.5853 138.538 98.1437 138.538 98.7422C138.538 99.3406 138.425 99.899 138.198 100.417C137.971 100.934 137.655 101.385 137.249 101.77C136.843 102.156 136.358 102.457 135.795 102.674C135.232 102.891 134.617 103 133.952 103C133.279 103 132.662 102.891 132.103 102.674C131.543 102.457 131.062 102.156 130.66 101.77C130.258 101.385 129.943 100.934 129.716 100.417C129.49 99.899 129.376 99.3406 129.376 98.7422Z" fill="#100F0D"/>
<path d="M148.512 96.4855H145.956V97.8329H148.369V99.6083H145.956V100.999H148.512V102.776H143.805V94.7085H148.512V96.4855Z" fill="#100F0D"/>
<path d="M154.503 96.7729C154.269 96.589 154.035 96.4502 153.801 96.3616C153.566 96.273 153.34 96.2279 153.121 96.2279C152.842 96.2279 152.616 96.2914 152.44 96.4201C152.265 96.5488 152.177 96.716 152.177 96.9233C152.177 97.0654 152.221 97.1841 152.309 97.2761C152.396 97.3697 152.512 97.4499 152.654 97.5168C152.797 97.5853 152.957 97.6439 153.137 97.694C153.316 97.7442 153.494 97.7976 153.669 97.8545C154.371 98.0818 154.885 98.3877 155.211 98.7689C155.536 99.15 155.699 99.6482 155.699 100.262C155.699 100.675 155.628 101.049 155.485 101.385C155.342 101.719 155.134 102.007 154.86 102.246C154.585 102.485 154.249 102.671 153.85 102.803C153.451 102.935 153 103 152.495 103C151.449 103 150.48 102.697 149.587 102.091L150.509 100.4C150.831 100.678 151.149 100.885 151.464 101.021C151.778 101.156 152.089 101.225 152.396 101.225C152.747 101.225 153.009 101.146 153.181 100.989C153.352 100.832 153.439 100.655 153.439 100.454C153.439 100.334 153.417 100.228 153.373 100.138C153.329 100.049 153.256 99.9675 153.153 99.8923C153.051 99.8171 152.917 99.7485 152.753 99.6833C152.588 99.6198 152.389 99.5479 152.155 99.4694C151.877 99.3841 151.604 99.2904 151.337 99.1868C151.07 99.0831 150.833 98.9461 150.624 98.7739C150.416 98.6034 150.247 98.3877 150.119 98.127C149.991 97.8662 149.927 97.5369 149.927 97.1373C149.927 96.7378 149.995 96.3766 150.131 96.0523C150.266 95.7263 150.456 95.4488 150.701 95.2165C150.946 94.9858 151.246 94.8053 151.601 94.6766C151.956 94.5478 152.352 94.4843 152.791 94.4843C153.201 94.4843 153.629 94.5395 154.075 94.6498C154.521 94.7601 154.949 94.9223 155.359 95.1363L154.503 96.7729Z" fill="#100F0D"/>
<path d="M160.373 96.4855V102.776H158.223V96.4855H156.456V94.7085H162.14V96.4855H160.373Z" fill="#100F0D"/>
<path d="M167.549 99.7804L166.584 97.094L165.618 99.7804H167.549ZM168.12 101.375H165.047L164.554 102.776H162.26L165.41 94.7085H167.758L170.907 102.776H168.613L168.12 101.375Z" fill="#100F0D"/>
<path d="M174.626 100.999H175.12C175.493 100.999 175.826 100.942 176.118 100.829C176.411 100.715 176.658 100.558 176.859 100.357C177.06 100.158 177.214 99.9208 177.32 99.6467C177.426 99.3725 177.479 99.07 177.479 98.7423C177.479 98.4214 177.424 98.1221 177.314 97.8429C177.205 97.5654 177.049 97.3264 176.848 97.1274C176.647 96.9268 176.4 96.7697 176.107 96.656C175.815 96.5423 175.486 96.4855 175.12 96.4855H174.626V100.999ZM172.476 94.7085H175.658C176.221 94.7085 176.749 94.8204 177.243 95.0411C177.737 95.2618 178.168 95.556 178.538 95.9238C178.907 96.2899 179.198 96.7179 179.41 97.2077C179.622 97.6958 179.728 98.2074 179.728 98.7423C179.728 99.2706 179.624 99.7788 179.416 100.267C179.207 100.755 178.918 101.186 178.549 101.556C178.179 101.927 177.748 102.223 177.254 102.443C176.76 102.666 176.228 102.776 175.658 102.776H172.476V94.7085Z" fill="#100F0D"/>
<path d="M183.206 98.7422C183.206 99.0631 183.268 99.359 183.393 99.6298C183.517 99.9006 183.685 100.136 183.899 100.337C184.11 100.536 184.357 100.691 184.638 100.802C184.92 100.912 185.218 100.967 185.532 100.967C185.847 100.967 186.146 100.912 186.427 100.802C186.709 100.691 186.958 100.536 187.173 100.337C187.39 100.136 187.559 99.9006 187.684 99.6298C187.808 99.359 187.87 99.0631 187.87 98.7422C187.87 98.4212 187.808 98.1253 187.684 97.8545C187.559 97.5836 187.39 97.3479 187.173 97.1473C186.958 96.9484 186.709 96.793 186.427 96.6826C186.146 96.5723 185.847 96.5171 185.532 96.5171C185.218 96.5171 184.92 96.5723 184.638 96.6826C184.357 96.793 184.11 96.9484 183.899 97.1473C183.685 97.3479 183.517 97.5836 183.393 97.8545C183.268 98.1253 183.206 98.4212 183.206 98.7422ZM180.957 98.7422C180.957 98.1437 181.071 97.5853 181.297 97.0687C181.524 96.5505 181.839 96.0992 182.241 95.7147C182.643 95.3285 183.124 95.0276 183.683 94.8103C184.243 94.593 184.86 94.4843 185.532 94.4843C186.198 94.4843 186.813 94.593 187.376 94.8103C187.939 95.0276 188.423 95.3285 188.83 95.7147C189.235 96.0992 189.553 96.5505 189.78 97.0687C190.005 97.5853 190.119 98.1437 190.119 98.7422C190.119 99.3406 190.005 99.899 189.78 100.417C189.553 100.934 189.235 101.385 188.83 101.77C188.423 102.156 187.939 102.457 187.376 102.674C186.813 102.891 186.198 103 185.532 103C184.86 103 184.243 102.891 183.683 102.674C183.124 102.457 182.643 102.156 182.241 101.77C181.839 101.385 181.524 100.934 181.297 100.417C181.071 99.899 180.957 99.3406 180.957 98.7422Z" fill="#100F0D"/>
</svg>
